<?xml version="1.0" standalone="no"?>
<!DOCTYPE svg PUBLIC "-//W3C//DTD SVG 1.1//EN" "http://www.w3.org/Graphics/SVG/1.1/DTD/svg11.dtd" >
<svg xmlns="http://www.w3.org/2000/svg" xmlns:xlink="http://www.w3.org/1999/xlink" version="1.1">
<metadata>
Created by FontForge 20161003 at Tue Apr 24 10:38:14 2018
 By www-data
Copyright (c) 2014 by Typetype. Designer Ivan Gladkikh, technical designer Olexa Volochay, Nadyr Rakhimov. All rights reserved.
</metadata>
<defs>
<font id="TTSupermolotRegular" horiz-adv-x="585" >
  <font-face 
    font-family="TTSupermolotRegular"
    font-weight="400"
    font-stretch="normal"
    units-per-em="1000"
    panose-1="0 0 0 0 0 0 0 0 0 0"
    ascent="807"
    descent="-193"
    x-height="510"
    cap-height="700"
    bbox="-40 -250 1130 960"
    underline-thickness="50"
    underline-position="-150"
    unicode-range="U+000D-F6D4"
  />
<missing-glyph horiz-adv-x="0" 
 />
    <glyph glyph-name=".notdef" horiz-adv-x="0" 
 />
    <glyph glyph-name=".null" horiz-adv-x="0" 
 />
    <glyph glyph-name="nonmarkingreturn" unicode="&#xd;" horiz-adv-x="0" 
 />
    <glyph glyph-name="nonmarkingreturn" horiz-adv-x="0" 
 />
    <glyph glyph-name="space" unicode=" " horiz-adv-x="240" 
 />
    <glyph glyph-name="exclam" unicode="!" horiz-adv-x="235" 
d="M155 700v-240l-15 -240h-45l-15 240v240h75zM155 95v-95h-75v95h75z" />
    <glyph glyph-name="quotedbl" unicode="&#x22;" horiz-adv-x="315" 
d="M50 700h60v-95l-10 -120h-40l-10 120v95zM205 700h60v-95l-10 -120h-40l-10 120v95z" />
    <glyph glyph-name="numbersign" unicode="#" horiz-adv-x="680" 
d="M145 0h-65l55 175h-115v60h130l70 230h-140v60h155l55 175h65l-55 -175h180l55 175h65l-55 -175h115v-60h-130l-70 -230h140v-60h-155l-55 -175h-65l55 175h-180zM285 465l-70 -230h180l70 230h-180z" />
    <glyph glyph-name="dollar" unicode="$" horiz-adv-x="565" 
d="M55 505v30q0 36 12.5 66t35.5 52t55.5 34.5t71.5 12.5h20v105h75v-105h180v-45l-20 -20h-255q-21 0 -39 -8t-31.5 -21.5t-21.5 -31.5t-8 -39v-30q0 -42 21 -64.5t59 -30.5l185 -40q53 -11 89 -51.5t36 -108.5v-45q0 -36 -12.5 -66t-35.5 -52t-55.5 -34.5t-71.5 -12.5h-20
v-105h-75v105h-205v65h300q21 0 39 8t31.5 21.5t21.5 31.5t8 39v45q0 42 -21 64.5t-59 30.5l-185 40q-53 11 -89 51.5t-36 108.5z" />
    <glyph glyph-name="percent" unicode="%" horiz-adv-x="770" 
d="M335 490q0 -53 -35 -86.5t-95 -33.5h-35q-60 0 -95 33.5t-35 86.5v100q0 53 35 86.5t95 33.5h35q60 0 95 -33.5t35 -86.5v-100zM100 590v-100q0 -30 18 -47.5t52 -17.5h35q34 0 52 17.5t18 47.5v100q0 30 -18 47.5t-52 17.5h-35q-34 0 -52 -17.5t-18 -47.5zM565 700h55
v-30l-415 -670h-55v30zM730 110q0 -53 -35 -86.5t-95 -33.5h-35q-60 0 -95 33.5t-35 86.5v100q0 53 35 86.5t95 33.5h35q60 0 95 -33.5t35 -86.5v-100zM495 210v-100q0 -30 18 -47.5t52 -17.5h35q34 0 52 17.5t18 47.5v100q0 30 -18 47.5t-52 17.5h-35q-34 0 -52 -17.5
t-18 -47.5z" />
    <glyph glyph-name="ampersand" unicode="&#x26;" horiz-adv-x="625" 
d="M550 0l-75 75h-5q-10 -24 -32 -42q-19 -18 -50.5 -30.5t-82.5 -12.5h-90q-39 0 -71.5 12.5t-55.5 34.5t-35.5 52t-12.5 66v60q0 53 22.5 84.5t50.5 48.5q31 19 72 27v5q-20 18 -35 39q-14 19 -24.5 42t-10.5 49v25q0 36 12.5 66t35.5 52t55.5 34.5t71.5 12.5h195v-45
l-20 -20h-175q-21 0 -39 -8t-31.5 -21.5t-21.5 -31.5t-8 -39v-25q0 -15 8.5 -31.5t21.5 -33.5t29 -33.5t31 -31.5l345 -350v-30h-75zM305 55q34 0 57 11.5t37 26.5q16 16 26 37l-181 185h-29q-21 0 -39 -8t-31.5 -21.5t-21.5 -31.5t-8 -39v-60q0 -21 8 -39t21.5 -31.5
t31.5 -21.5t39 -8h90z" />
    <glyph glyph-name="quotesingle" unicode="'" horiz-adv-x="160" 
d="M50 700h60v-95l-10 -120h-40l-10 120v95z" />
    <glyph glyph-name="parenleft" unicode="(" horiz-adv-x="310" 
d="M80 -25v640q0 36 12.5 66t35.5 52t55.5 34.5t71.5 12.5h45v-65h-45q-21 0 -39 -8t-31.5 -21.5t-21.5 -31.5t-8 -39v-640q0 -21 8 -39t21.5 -31.5t31.5 -21.5t39 -8h45v-65h-45q-39 0 -71.5 12.5t-55.5 34.5t-35.5 52t-12.5 66z" />
    <glyph glyph-name="parenright" unicode=")" horiz-adv-x="310" 
d="M230 615v-640q0 -36 -12.5 -66t-35.5 -52t-55.5 -34.5t-71.5 -12.5h-45v65h45q21 0 39 8t31.5 21.5t21.5 31.5t8 39v640q0 21 -8 39t-21.5 31.5t-31.5 21.5t-39 8h-45v65h45q39 0 71.5 -12.5t55.5 -34.5t35.5 -52t12.5 -66z" />
    <glyph glyph-name="asterisk" unicode="*" horiz-adv-x="375" 
d="M190 485h-5l-85 -110l-30 20l75 115l-125 50l10 35l130 -30l10 135h35l10 -135l130 30l10 -35l-125 -50l75 -115l-30 -20z" />
    <glyph glyph-name="plus" unicode="+" horiz-adv-x="485" 
d="M30 355h180v185h65v-185h180v-65h-180v-185h-65v185h-180v65z" />
    <glyph glyph-name="comma" unicode="," horiz-adv-x="195" 
d="M60 95h75v-65l-40 -125h-35v190z" />
    <glyph glyph-name="hyphen" unicode="-" horiz-adv-x="475" 
d="M435 355v-65h-395v65h395z" />
    <glyph glyph-name="period" unicode="." horiz-adv-x="195" 
d="M60 95h75v-95h-75v95z" />
    <glyph glyph-name="slash" unicode="/" horiz-adv-x="495" 
d="M80 -50h-60v30l395 770h60v-30z" />
    <glyph glyph-name="zero" unicode="0" horiz-adv-x="645" 
d="M565 545v-390q0 -36 -12.5 -66t-35.5 -52t-55.5 -34.5t-71.5 -12.5h-135q-39 0 -71.5 12.5t-55.5 34.5t-35.5 52t-12.5 66v390q0 36 12.5 66t35.5 52t55.5 34.5t71.5 12.5h135q39 0 71.5 -12.5t55.5 -34.5t35.5 -52t12.5 -66zM155 155q0 -21 8 -39t21.5 -31.5t31.5 -21.5
t39 -8h135q21 0 39 8t31.5 21.5t21.5 31.5t8 39v390q0 21 -8 39t-21.5 31.5t-31.5 21.5t-39 8h-135q-21 0 -39 -8t-31.5 -21.5t-21.5 -31.5t-8 -39v-390z" />
    <glyph glyph-name="one" unicode="1" horiz-adv-x="320" 
d="M220 700v-700h-75v630h-125v45l140 25h60z" />
    <glyph glyph-name="two" unicode="2" horiz-adv-x="545" 
d="M380 305l-260 -235v-5h380v-65h-485v65l315 285q19 17 35.5 33.5t28.5 35.5t19 41t7 50v25q0 21 -8 39t-21.5 31.5t-31.5 21.5t-39 8h-265l-20 20v45h285q39 0 71.5 -12.5t55.5 -34.5t35.5 -52t12.5 -66v-25q0 -36 -9.5 -64.5t-25.5 -53t-36.5 -45.5t-43.5 -42z" />
    <glyph glyph-name="three" unicode="3" horiz-adv-x="535" 
d="M135 340v60l250 230v5h-335l-20 20v45h450v-65l-245 -225v-5h80q39 0 71.5 -12.5t55.5 -34.5t35.5 -52t12.5 -66v-75q0 -36 -12.5 -66t-35.5 -52t-55.5 -34.5t-71.5 -12.5h-295v65h295q21 0 39 8t31.5 21.5t21.5 31.5t8 39v75q0 21 -8 39t-21.5 31.5t-31.5 21.5t-39 8
h-180z" />
    <glyph glyph-name="four" unicode="4" horiz-adv-x="575" 
d="M460 700v-475h95v-65h-95v-160h-75v160h-365v65l350 475h90zM380 605l-275 -375v-5h280v380h-5z" />
    <glyph glyph-name="five" unicode="5" horiz-adv-x="580" 
d="M70 0v65h285q21 0 39 8t31.5 21.5t21.5 31.5t8 39v85q0 21 -8 39t-21.5 31.5t-31.5 21.5t-39 8h-270v350h415v-45l-20 -20h-320v-220h195q39 0 71.5 -12.5t55.5 -34.5t35.5 -52t12.5 -66v-85q0 -36 -12.5 -66t-35.5 -52t-55.5 -34.5t-71.5 -12.5h-285z" />
    <glyph glyph-name="six" unicode="6" horiz-adv-x="605" 
d="M255 -10q-39 0 -71.5 12.5t-55.5 34.5t-35.5 52t-12.5 66v380q0 36 12.5 66t35.5 52t55.5 34.5t71.5 12.5h265v-45l-20 -20h-245q-21 0 -39 -8t-31.5 -21.5t-21.5 -31.5t-8 -39v-115h225q39 0 71.5 -12.5t55.5 -34.5t35.5 -52t12.5 -66v-100q0 -36 -12.5 -66t-35.5 -52
t-55.5 -34.5t-71.5 -12.5h-125zM155 155q0 -21 8 -39t21.5 -31.5t31.5 -21.5t39 -8h125q21 0 39 8t31.5 21.5t21.5 31.5t8 39v100q0 21 -8 39t-21.5 31.5t-31.5 21.5t-39 8h-225v-200z" />
    <glyph glyph-name="seven" unicode="7" horiz-adv-x="505" 
d="M205 0h-70v30l265 600v5h-380v65h465v-65z" />
    <glyph glyph-name="eight" unicode="8" horiz-adv-x="595" 
d="M470 155v75q0 21 -8 39t-21.5 31.5t-31.5 21.5t-39 8h-145q-21 0 -39 -8t-31.5 -21.5t-21.5 -31.5t-8 -39v-75q0 -21 8 -39t21.5 -31.5t31.5 -21.5t39 -8h145q21 0 39 8t31.5 21.5t21.5 31.5t8 39zM450 495v50q0 21 -8 39t-21.5 31.5t-31.5 21.5t-39 8h-105q-21 0 -39 -8
t-31.5 -21.5t-21.5 -31.5t-8 -39v-50q0 -21 8 -39t21.5 -31.5t31.5 -21.5t39 -8h105q21 0 39 8t31.5 21.5t21.5 31.5t8 39zM50 230q0 42 17 68t38 41q24 17 55 26v5q-25 10 -45 27q-18 15 -31.5 38.5t-13.5 59.5v50q0 36 12.5 66t35.5 52t55.5 34.5t71.5 12.5h105
q39 0 71.5 -12.5t55.5 -34.5t35.5 -52t12.5 -66v-50q0 -36 -14 -60t-31 -38q-20 -17 -45 -27v-5q31 -9 55 -26q22 -16 38.5 -41.5t16.5 -67.5v-75q0 -36 -12.5 -66t-35.5 -52t-55.5 -34.5t-71.5 -12.5h-145q-39 0 -71.5 12.5t-55.5 34.5t-35.5 52t-12.5 66v75z" />
    <glyph glyph-name="nine" unicode="9" horiz-adv-x="605" 
d="M225 710h125q39 0 71.5 -12.5t55.5 -34.5t35.5 -52t12.5 -66v-380q0 -36 -12.5 -66t-35.5 -52t-55.5 -34.5t-71.5 -12.5h-265v65h265q21 0 39 8t31.5 21.5t21.5 31.5t8 39v115h-225q-39 0 -71.5 12.5t-55.5 34.5t-35.5 52t-12.5 66v100q0 36 12.5 66t35.5 52t55.5 34.5
t71.5 12.5zM450 345v200q0 21 -8 39t-21.5 31.5t-31.5 21.5t-39 8h-125q-21 0 -39 -8t-31.5 -21.5t-21.5 -31.5t-8 -39v-100q0 -21 8 -39t21.5 -31.5t31.5 -21.5t39 -8h225z" />
    <glyph glyph-name="colon" unicode=":" horiz-adv-x="195" 
d="M60 415v95h75v-95h-75zM60 0v95h75v-95h-75z" />
    <glyph glyph-name="semicolon" unicode=";" horiz-adv-x="195" 
d="M60 510h75v-95h-75v95zM60 95h75v-65l-40 -125h-35v190z" />
    <glyph glyph-name="less" unicode="&#x3c;" horiz-adv-x="480" 
d="M115 255v-5l325 -155v-75l-410 200v65l410 200v-75z" />
    <glyph glyph-name="equal" unicode="=" horiz-adv-x="470" 
d="M425 455v-65h-380v65h380zM425 260v-65h-380v65h380z" />
    <glyph glyph-name="greater" unicode="&#x3e;" horiz-adv-x="480" 
d="M40 410v75l410 -200v-65l-410 -200v75l325 155v5z" />
    <glyph glyph-name="question" unicode="?" horiz-adv-x="490" 
d="M150 95h75v-95h-75v95zM265 635h-235l-20 20v45h255q39 0 71.5 -12.5t55.5 -34.5t35.5 -52t12.5 -66v-40q0 -56 -32 -93.5t-73 -56.5l-55 -25q-26 -12 -43 -34t-17 -56v-30h-65v30q0 60 29 95.5t71 54.5l55 25q26 12 40.5 30t14.5 60v40q0 21 -8 39t-21.5 31.5
t-31.5 21.5t-39 8z" />
    <glyph glyph-name="at" unicode="@" horiz-adv-x="840" 
d="M685 510v65q0 17 -7.5 33t-20.5 29t-29 20.5t-33 7.5h-340q-21 0 -39 -8t-31.5 -21.5t-21.5 -31.5t-8 -39v-430q0 -21 8 -39t21.5 -31.5t31.5 -21.5t39 -8h490v-65h-490q-39 0 -71.5 12.5t-55.5 34.5t-35.5 52t-12.5 66v430q0 36 12.5 66t35.5 52t55.5 34.5t71.5 12.5
h340q36 0 66 -12.5t52 -33.5t34.5 -49t12.5 -60v-365h-50l-10 70h-5q-12 -22 -31 -40q-16 -16 -39 -28t-55 -12h-65q-72 0 -111 40t-39 100v30q0 30 11 55.5t30.5 44.5t47 29.5t61.5 10.5h180zM505 260h65q28 0 49.5 14t36.5 31q17 20 29 45v100h-180q-34 0 -57 -23t-23 -57
v-30q0 -34 23 -57t57 -23z" />
    <glyph glyph-name="A" unicode="A" horiz-adv-x="605" 
d="M150 180l-60 -180h-75v30l245 670h85l245 -670v-30h-75l-60 180h-305zM430 245l-125 365h-5l-125 -365h255z" />
    <glyph glyph-name="B" unicode="B" horiz-adv-x="650" 
d="M425 330h-250v-265h250q21 0 39 8t31.5 21.5t21.5 31.5t8 39v65q0 21 -8 39t-21.5 31.5t-31.5 21.5t-39 8zM480 375v-5q34 -7 60 -25q24 -16 42 -43t18 -72v-65q0 -36 -12.5 -66t-35.5 -52t-55.5 -34.5t-71.5 -12.5h-325v700h290q39 0 71.5 -12.5t55.5 -34.5t35.5 -52
t12.5 -66v-40q0 -38 -13 -61t-29 -36q-19 -16 -43 -23zM390 635h-215v-240h215q21 0 39 8t31.5 21.5t21.5 31.5t8 39v40q0 21 -8 39t-21.5 31.5t-31.5 21.5t-39 8z" />
    <glyph glyph-name="C" unicode="C" horiz-adv-x="580" 
d="M545 65v-65h-290q-39 0 -71.5 12.5t-55.5 34.5t-35.5 52t-12.5 66v370q0 36 12.5 66t35.5 52t55.5 34.5t71.5 12.5h290v-45l-20 -20h-270q-21 0 -39 -8t-31.5 -21.5t-21.5 -31.5t-8 -39v-370q0 -21 8 -39t21.5 -31.5t31.5 -21.5t39 -8h290z" />
    <glyph glyph-name="D" unicode="D" horiz-adv-x="675" 
d="M100 0v700h320q39 0 71.5 -12.5t55.5 -34.5t35.5 -52t12.5 -66v-370q0 -36 -12.5 -66t-35.5 -52t-55.5 -34.5t-71.5 -12.5h-320zM175 635v-570h245q21 0 39 8t31.5 21.5t21.5 31.5t8 39v370q0 21 -8 39t-21.5 31.5t-31.5 21.5t-39 8h-245z" />
    <glyph glyph-name="E" unicode="E" 
d="M100 0v700h455v-45l-20 -20h-360v-245h285v-65h-285v-260h380v-65h-455z" />
    <glyph glyph-name="F" unicode="F" horiz-adv-x="565" 
d="M175 0h-75v700h455v-45l-20 -20h-360v-280h280v-65h-280v-290z" />
    <glyph glyph-name="G" unicode="G" horiz-adv-x="645" 
d="M565 0h-310q-39 0 -71.5 12.5t-55.5 34.5t-35.5 52t-12.5 66v370q0 36 12.5 66t35.5 52t55.5 34.5t71.5 12.5h290v-45l-20 -20h-270q-21 0 -39 -8t-31.5 -21.5t-21.5 -31.5t-8 -39v-370q0 -21 8 -39t21.5 -31.5t31.5 -21.5t39 -8h235v315h75v-380z" />
    <glyph glyph-name="H" unicode="H" horiz-adv-x="695" 
d="M595 700v-700h-75v325h-345v-325h-75v700h75v-310h345v310h75z" />
    <glyph glyph-name="I" unicode="I" horiz-adv-x="275" 
d="M175 0h-75v700h75v-700z" />
    <glyph glyph-name="J" unicode="J" horiz-adv-x="485" 
d="M385 700v-545q0 -36 -12.5 -66t-35.5 -52t-55.5 -34.5t-71.5 -12.5h-200v65h200q21 0 39 8t31.5 21.5t21.5 31.5t8 39v545h75z" />
    <glyph glyph-name="K" unicode="K" horiz-adv-x="625" 
d="M175 700v-310h165l170 310h75v-30l-185 -310l195 -330v-30h-75l-180 325h-165v-325h-75v700h75z" />
    <glyph glyph-name="L" unicode="L" horiz-adv-x="560" 
d="M100 700h75v-635h375v-65h-450v700z" />
    <glyph glyph-name="M" unicode="M" horiz-adv-x="905" 
d="M415 95l-205 490h-5l-70 -585h-75v30l90 670h90l210 -505h5l210 505h90l90 -670v-30h-75l-70 585h-5l-205 -490h-75z" />
    <glyph glyph-name="N" unicode="N" horiz-adv-x="690" 
d="M510 0l-340 575h-5l10 -130v-445h-75v700h80l340 -575h5l-10 130v445h75v-700h-80z" />
    <glyph glyph-name="O" unicode="O" horiz-adv-x="685" 
d="M80 545q0 36 12.5 66t35.5 52t55.5 34.5t71.5 12.5h175q39 0 71.5 -12.5t55.5 -34.5t35.5 -52t12.5 -66v-390q0 -36 -12.5 -66t-35.5 -52t-55.5 -34.5t-71.5 -12.5h-175q-39 0 -71.5 12.5t-55.5 34.5t-35.5 52t-12.5 66v390zM530 155v390q0 21 -8 39t-21.5 31.5
t-31.5 21.5t-39 8h-175q-21 0 -39 -8t-31.5 -21.5t-21.5 -31.5t-8 -39v-390q0 -21 8 -39t21.5 -31.5t31.5 -21.5t39 -8h175q21 0 39 8t31.5 21.5t21.5 31.5t8 39z" />
    <glyph glyph-name="P" unicode="P" horiz-adv-x="635" 
d="M175 0h-75v700h310q39 0 71.5 -12.5t55.5 -34.5t35.5 -52t12.5 -66v-135q0 -36 -12.5 -66t-35.5 -52t-55.5 -34.5t-71.5 -12.5h-235v-235zM410 635h-235v-335h235q21 0 39 8t31.5 21.5t21.5 31.5t8 39v135q0 21 -8 39t-21.5 31.5t-31.5 21.5t-39 8z" />
    <glyph glyph-name="Q" unicode="Q" horiz-adv-x="685" 
d="M605 545v-390q0 -36 -12.5 -66t-35.5 -52t-55.5 -34.5t-71.5 -12.5h-50l90 -120v-30h-75l-90 150h-50q-39 0 -71.5 12.5t-55.5 34.5t-35.5 52t-12.5 66v390q0 36 12.5 66t35.5 52t55.5 34.5t71.5 12.5h175q39 0 71.5 -12.5t55.5 -34.5t35.5 -52t12.5 -66zM155 155
q0 -21 8 -39t21.5 -31.5t31.5 -21.5t39 -8h175q21 0 39 8t31.5 21.5t21.5 31.5t8 39v390q0 21 -8 39t-21.5 31.5t-31.5 21.5t-39 8h-175q-21 0 -39 -8t-31.5 -21.5t-21.5 -31.5t-8 -39v-390z" />
    <glyph glyph-name="R" unicode="R" horiz-adv-x="655" 
d="M175 0h-75v700h310q39 0 71.5 -12.5t55.5 -34.5t35.5 -52t12.5 -66v-95q0 -53 -21 -84.5t-46 -47.5q-30 -20 -68 -28l155 -250v-30h-75l-155 275h-200v-275zM410 635h-235v-295h235q21 0 39 8t31.5 21.5t21.5 31.5t8 39v95q0 21 -8 39t-21.5 31.5t-31.5 21.5t-39 8z" />
    <glyph glyph-name="S" unicode="S" horiz-adv-x="565" 
d="M55 505v30q0 36 12.5 66t35.5 52t55.5 34.5t71.5 12.5h275v-45l-20 -20h-255q-21 0 -39 -8t-31.5 -21.5t-21.5 -31.5t-8 -39v-30q0 -42 21 -64.5t59 -30.5l185 -40q53 -11 89 -51.5t36 -108.5v-45q0 -36 -12.5 -66t-35.5 -52t-55.5 -34.5t-71.5 -12.5h-300v65h300
q21 0 39 8t31.5 21.5t21.5 31.5t8 39v45q0 42 -21 64.5t-59 30.5l-185 40q-53 11 -89 51.5t-36 108.5z" />
    <glyph glyph-name="T" unicode="T" horiz-adv-x="535" 
d="M305 635v-635h-75v635h-220v65h515v-45l-20 -20h-200z" />
    <glyph glyph-name="U" unicode="U" horiz-adv-x="700" 
d="M425 -10h-150q-39 0 -71.5 12.5t-55.5 34.5t-35.5 52t-12.5 66v545h75v-545q0 -21 8 -39t21.5 -31.5t31.5 -21.5t39 -8h150q21 0 39 8t31.5 21.5t21.5 31.5t8 39v545h75v-545q0 -36 -12.5 -66t-35.5 -52t-55.5 -34.5t-71.5 -12.5z" />
    <glyph glyph-name="V" unicode="V" 
d="M290 90h5l200 610h75v-30l-230 -670h-95l-230 670v30h75z" />
    <glyph glyph-name="W" unicode="W" horiz-adv-x="905" 
d="M405 590h95l150 -480h5l155 590h75v-30l-180 -670h-95l-155 490h-5l-155 -490h-95l-180 670v30h75l155 -590h5z" />
    <glyph glyph-name="X" unicode="X" 
d="M295 410l180 290h75v-30l-200 -310l220 -330v-30h-75l-200 305h-5l-200 -305h-75v30l220 330l-200 310v30h75l180 -290h5z" />
    <glyph glyph-name="Y" unicode="Y" horiz-adv-x="565" 
d="M320 215v-215h-75v215l-235 455v30h75l195 -405h5l195 405h75v-30z" />
    <glyph glyph-name="Z" unicode="Z" horiz-adv-x="540" 
d="M520 65v-65h-500v65l405 565v5h-375l-20 20v45h490v-65l-405 -565v-5h405z" />
    <glyph glyph-name="bracketleft" unicode="[" horiz-adv-x="320" 
d="M310 -190h-220v970h220v-65h-145v-840h145v-65z" />
    <glyph glyph-name="backslash" unicode="\" horiz-adv-x="495" 
d="M475 -50h-60l-395 770v30h60l395 -770v-30z" />
    <glyph glyph-name="bracketright" unicode="]" horiz-adv-x="320" 
d="M230 -190h-220v65h145v840h-145v65h220v-970z" />
    <glyph glyph-name="asciicircum" unicode="^" horiz-adv-x="425" 
d="M395 450h-70l-110 190h-5l-110 -190h-70l145 250h75z" />
    <glyph glyph-name="underscore" unicode="_" horiz-adv-x="390" 
d="M380 -95v-65h-370v65h370z" />
    <glyph glyph-name="grave" unicode="`" horiz-adv-x="235" 
d="M40 710h80l75 -155h-55z" />
    <glyph glyph-name="a" unicode="a" horiz-adv-x="530" 
d="M450 0h-45l-10 70h-5q-12 -22 -31 -40q-16 -16 -39 -28t-55 -12h-80q-72 0 -111 40t-39 100v30q0 30 11 55.5t30.5 44.5t47 29.5t61.5 10.5h195v70q0 34 -23 57t-57 23h-220v60h220q34 0 61.5 -10.5t47 -29.5t30.5 -44.5t11 -55.5v-370zM185 50h80q28 0 49.5 14t36.5 31
q17 20 29 45v100h-195q-34 0 -57 -23t-23 -57v-30q0 -34 23 -57t57 -23z" />
    <glyph glyph-name="b" unicode="b" horiz-adv-x="575" 
d="M150 700v-190h205q34 0 61.5 -10.5t47 -29.5t30.5 -44.5t11 -55.5v-230q0 -30 -11 -55.5t-30.5 -44.5t-47 -29.5t-61.5 -10.5h-275v700h70zM355 450h-205v-390h205q34 0 57 23t23 57v230q0 34 -23 57t-57 23z" />
    <glyph glyph-name="c" unicode="c" horiz-adv-x="480" 
d="M430 450h-210q-34 0 -57 -23t-23 -57v-230q0 -34 23 -57t57 -23h230v-60h-230q-72 0 -111 40t-39 100v230q0 30 11 55.5t30.5 44.5t47 29.5t61.5 10.5h230v-40z" />
    <glyph glyph-name="d" unicode="d" horiz-adv-x="575" 
d="M310 -10h-90q-34 0 -61.5 10.5t-47 29.5t-30.5 44.5t-11 55.5v240q0 30 11 55.5t30.5 44.5t47 29.5t61.5 10.5h205v190h70v-700h-45l-10 70h-5q-12 -22 -31 -40q-16 -16 -39 -28t-55 -12zM220 50h90q28 0 49.5 14t36.5 31q17 20 29 45v310h-205q-34 0 -57 -23t-23 -57
v-240q0 -34 23 -57t57 -23z" />
    <glyph glyph-name="e" unicode="e" horiz-adv-x="550" 
d="M460 0h-240q-72 0 -111 40t-39 100v240q0 30 11 55.5t30.5 44.5t47 29.5t61.5 10.5h110q34 0 61.5 -10.5t47 -29.5t30.5 -44.5t11 -55.5v-155h-340v-85q0 -34 23 -57t57 -23h240v-60zM140 380v-95h270v95q0 34 -23 57t-57 23h-110q-34 0 -57 -23t-23 -57z" />
    <glyph glyph-name="f" unicode="f" horiz-adv-x="355" 
d="M80 0v570q0 30 11 55.5t30.5 44.5t47 29.5t61.5 10.5h145v-40l-20 -20h-125q-34 0 -57 -23t-23 -57v-120h165v-60h-165v-390h-70z" />
    <glyph glyph-name="g" unicode="g" horiz-adv-x="520" 
d="M60 345v35q0 30 11 55.5t30.5 44.5t47 29.5t61.5 10.5h115l60 90h65v-30l-65 -70v-6q22 -8 40 -24q16 -15 28 -38.5t12 -61.5v-35q0 -30 -11 -55.5t-30.5 -44.5t-47 -29.5t-61.5 -10.5h-145q-30 0 -30 -30v-15q0 -30 30 -30h175q34 0 61.5 -10.5t47 -29.5t30.5 -44.5
t11 -55.5v-20q0 -30 -11 -55.5t-30.5 -44.5t-47 -29.5t-61.5 -10.5h-170q-72 0 -111 40t-39 100v20q0 36 13 58t30 35q18 14 42 21v5q-10 4 -17 11q-8 6 -13 15.5t-5 24.5v16q0 18 6 29.5t14 18.5q9 7 20 11v5q-15 8 -27 23q-12 12 -20 32t-8 50zM95 -10v-20q0 -34 23 -57
t57 -23h170q34 0 57 23t23 57v20q0 34 -23 57t-57 23h-170q-34 0 -57 -23t-23 -57zM130 380v-35q0 -34 23 -57t57 -23h105q34 0 57 23t23 57v35q0 34 -23 57t-57 23h-105q-34 0 -57 -23t-23 -57z" />
    <glyph glyph-name="h" unicode="h" 
d="M80 700h70v-190h205q34 0 61.5 -10.5t47 -29.5t30.5 -44.5t11 -55.5v-370h-70v370q0 34 -23 57t-57 23h-205v-450h-70v700z" />
    <glyph glyph-name="i" unicode="i" horiz-adv-x="230" 
d="M150 510v-510h-70v510h70zM150 700v-120h-70v120h70z" />
    <glyph glyph-name="j" unicode="j" horiz-adv-x="230" 
d="M150 700v-120h-70v120h70zM150 510v-540q0 -30 -11 -55.5t-30.5 -44.5t-47 -29.5t-61.5 -10.5h-40v60h40q34 0 57 23t23 57v540h70z" />
    <glyph glyph-name="k" unicode="k" horiz-adv-x="515" 
d="M285 295l120 215h70v-30l-130 -215l140 -235v-30h-70l-130 235h-135v-235h-70v700h70v-405h135z" />
    <glyph glyph-name="l" unicode="l" horiz-adv-x="265" 
d="M80 140v560h70v-560q0 -34 23 -57t57 -23h15v-60h-15q-34 0 -61.5 10.5t-47 29.5t-30.5 44.5t-11 55.5z" />
    <glyph glyph-name="m" unicode="m" horiz-adv-x="870" 
d="M150 370v-370h-70v510h45l10 -70h5q12 22 31 40q16 16 39 28t55 12h55q34 0 56 -11t35 -24q16 -15 24 -35h5q8 20 23 35q14 14 34.5 24.5t52.5 10.5h90q34 0 61.5 -10.5t47 -29.5t30.5 -44.5t11 -55.5v-380h-70v380q0 34 -23 57t-57 23h-90q-34 0 -57 -23t-23 -57v-380
h-70v380q0 34 -23 57t-57 23h-55q-28 0 -49.5 -14t-36.5 -31q-17 -20 -29 -45z" />
    <glyph glyph-name="n" unicode="n" 
d="M505 0h-70v380q0 34 -23 57t-57 23h-90q-28 0 -49.5 -14t-36.5 -31q-17 -20 -29 -45v-370h-70v510h45l10 -70h5q12 22 31 40q16 16 39 28t55 12h90q34 0 61.5 -10.5t47 -29.5t30.5 -44.5t11 -55.5v-380z" />
    <glyph glyph-name="o" unicode="o" horiz-adv-x="565" 
d="M140 380v-250q0 -34 23 -57t57 -23h125q34 0 57 23t23 57v250q0 34 -23 57t-57 23h-125q-34 0 -57 -23t-23 -57zM70 130v250q0 30 11 55.5t30.5 44.5t47 29.5t61.5 10.5h125q34 0 61.5 -10.5t47 -29.5t30.5 -44.5t11 -55.5v-250q0 -30 -11 -55.5t-30.5 -44.5t-47 -29.5
t-61.5 -10.5h-125q-72 0 -111 40t-39 100z" />
    <glyph glyph-name="p" unicode="p" horiz-adv-x="575" 
d="M265 520h90q34 0 61.5 -10.5t47 -29.5t30.5 -44.5t11 -55.5v-240q0 -30 -11 -55.5t-30.5 -44.5t-47 -29.5t-61.5 -10.5h-205v-170h-70v680h45l10 -70h5q12 22 31 40q16 16 39 28t55 12zM355 460h-90q-28 0 -49.5 -14t-36.5 -31q-17 -20 -29 -45v-310h205q34 0 57 23
t23 57v240q0 34 -23 57t-57 23z" />
    <glyph glyph-name="q" unicode="q" horiz-adv-x="575" 
d="M425 -170v170h-205q-34 0 -61.5 10.5t-47 29.5t-30.5 44.5t-11 55.5v230q0 30 11 55.5t30.5 44.5t47 29.5t61.5 10.5h275v-680h-70zM220 60h205v390h-205q-34 0 -57 -23t-23 -57v-230q0 -34 23 -57t57 -23z" />
    <glyph glyph-name="r" unicode="r" horiz-adv-x="370" 
d="M360 520v-65h-95q-28 0 -49.5 -13t-36.5 -29q-17 -19 -29 -43v-370h-70v510h45l10 -70h5q12 22 31 40q16 16 39 28t55 12h95z" />
    <glyph glyph-name="s" unicode="s" horiz-adv-x="465" 
d="M110 370q0 -30 15.5 -46.5t49.5 -23.5l145 -30q53 -11 81.5 -42t28.5 -88q0 -30 -11 -55.5t-30.5 -44.5t-47 -29.5t-61.5 -10.5h-245v60h245q34 0 57 23t23 57q0 30 -15.5 46.5t-49.5 23.5l-145 30q-53 11 -81.5 42t-28.5 88q0 61 41 100.5t109 39.5h225v-40l-20 -20
h-205q-34 0 -57 -23t-23 -57z" />
    <glyph glyph-name="t" unicode="t" horiz-adv-x="375" 
d="M20 450v60h80l30 150h40v-150h145v-60h-145v-310q0 -34 23 -57t57 -23h95v-60h-95q-34 0 -61.5 10.5t-47 29.5t-30.5 44.5t-11 55.5v310h-80z" />
    <glyph glyph-name="u" unicode="u" 
d="M80 510h70v-380q0 -34 23 -57t57 -23h90q28 0 49.5 14t36.5 31q17 20 29 45v370h70v-510h-45l-10 70h-5q-12 -22 -31 -40q-16 -16 -39 -28t-55 -12h-90q-34 0 -61.5 10.5t-47 29.5t-30.5 44.5t-11 55.5v380z" />
    <glyph glyph-name="v" unicode="v" horiz-adv-x="485" 
d="M200 0l-180 480v30h70l150 -430h5l150 430h70v-30l-180 -480h-85z" />
    <glyph glyph-name="w" unicode="w" horiz-adv-x="705" 
d="M350 350l-115 -350h-80l-135 480v30h70l110 -410h5l105 340h85l105 -340h5l110 410h70v-30l-135 -480h-80l-115 350h-5z" />
    <glyph glyph-name="x" unicode="x" horiz-adv-x="465" 
d="M235 220h-5l-140 -220h-70v30l160 235l-150 215v30h70l130 -201h5l130 201h70v-30l-150 -215l160 -235v-30h-70z" />
    <glyph glyph-name="y" unicode="y" horiz-adv-x="485" 
d="M465 480l-180 -480q-34 -90 -75.5 -130t-109.5 -40h-25v60h25q73 0 110 110l-190 480v30h70l155 -430h5l145 430h70v-30z" />
    <glyph glyph-name="z" unicode="z" horiz-adv-x="440" 
d="M420 60v-60h-400v60l310 385v5h-280l-20 20v40h390v-60l-310 -385v-5h310z" />
    <glyph glyph-name="braceleft" unicode="{" horiz-adv-x="345" 
d="M110 300v-5q25 -8 45 -25q18 -15 31.5 -38.5t13.5 -61.5v-195q0 -21 8 -39t21.5 -31.5t31.5 -21.5t39 -8h35v-65h-35q-39 0 -71.5 12.5t-55.5 34.5t-35.5 52t-12.5 66v195q0 19 -8 36t-21 30t-30 21t-36 8v65q19 0 36 8t30 21t21 30t8 36v190q0 36 12.5 66t35.5 52
t55.5 34.5t71.5 12.5h35v-65h-35q-21 0 -39 -8t-31.5 -21.5t-21.5 -31.5t-8 -39v-190q0 -38 -14 -62t-31 -38q-20 -16 -45 -25z" />
    <glyph glyph-name="bar" unicode="|" horiz-adv-x="255" 
d="M165 800v-970h-75v970h75z" />
    <glyph glyph-name="braceright" unicode="}" horiz-adv-x="345" 
d="M235 295v5q-25 9 -45 25q-18 15 -31.5 38.5t-13.5 61.5v190q0 21 -8 39t-21.5 31.5t-31.5 21.5t-39 8h-35v65h35q39 0 71.5 -12.5t55.5 -34.5t35.5 -52t12.5 -66v-190q0 -19 8 -36t21 -30t30 -21t36 -8v-65q-19 0 -36 -8t-30 -21t-21 -30t-8 -36v-195q0 -36 -12.5 -66
t-35.5 -52t-55.5 -34.5t-71.5 -12.5h-35v65h35q21 0 39 8t31.5 21.5t21.5 31.5t8 39v195q0 38 14 62t31 38q20 17 45 25z" />
    <glyph glyph-name="asciitilde" unicode="~" horiz-adv-x="495" 
d="M255 285l-55 50q-10 10 -20 18q-9 7 -18 12t-17 5h-10q-15 0 -25 -10.5t-10 -29.5v-90h-60v90q0 45 26.5 72.5t68.5 27.5h10q19 0 36 -8t30 -17q16 -11 29 -25l55 -50q10 -10 20 -17q9 -8 18 -13t17 -5h10q15 0 25 10.5t10 29.5v90h60v-90q0 -45 -26.5 -72.5t-68.5 -27.5
h-10q-19 0 -36 8t-30 17q-16 11 -29 25z" />
    <glyph glyph-name="nonbreakingspace" unicode="&#xa0;" horiz-adv-x="240" 
 />
    <glyph glyph-name="exclamdown" unicode="&#xa1;" horiz-adv-x="235" 
d="M80 -170v230l15 230h45l15 -230v-230h-75zM80 415v95h75v-95h-75z" />
    <glyph glyph-name="cent" unicode="&#xa2;" horiz-adv-x="480" 
d="M325 -100h-65v100h-40q-72 0 -111 40t-39 100v230q0 30 11 55.5t30.5 44.5t47 29.5t61.5 10.5h40v100h65v-100h125v-40l-20 -20h-210q-34 0 -57 -23t-23 -57v-230q0 -34 23 -57t57 -23h230v-60h-125v-100z" />
    <glyph glyph-name="sterling" unicode="&#xa3;" horiz-adv-x="520" 
d="M145 190v150h-80v60h80v145q0 36 12.5 66t35.5 52t55.5 34.5t71.5 12.5h90v-45l-20 -20h-70q-21 0 -39 -8t-31.5 -21.5t-21.5 -31.5t-8 -39v-145h165v-60h-165v-150q0 -34 -10 -57t-22 -37q-15 -16 -33 -26v-5h345v-65h-490v65h40q27 11 48 29q19 16 33 39t14 57z" />
    <glyph glyph-name="currency" unicode="&#xa4;" horiz-adv-x="645" 
d="M30 290v65h85v345h305q39 0 71.5 -12.5t55.5 -34.5t35.5 -52t12.5 -66v-80q0 -36 -12.5 -66t-35.5 -52t-55.5 -34.5t-71.5 -12.5h-230v-90h300v-65h-300v-135h-75v135h-85v65h85v90h-85zM420 635h-230v-280h230q21 0 39 8t31.5 21.5t21.5 31.5t8 39v80q0 21 -8 39
t-21.5 31.5t-31.5 21.5t-39 8z" />
    <glyph glyph-name="yen" unicode="&#xa5;" 
d="M330 215v-40h175v-65h-175v-110h-75v110h-175v65h175v40l-26 50h-149v65h115l-175 340v30h75l195 -405h5l195 405h75v-30l-175 -340h115v-65h-149z" />
    <glyph glyph-name="brokenbar" unicode="&#xa6;" horiz-adv-x="255" 
d="M165 800v-395h-75v395h75zM165 225v-395h-75v395h75z" />
    <glyph glyph-name="section" unicode="&#xa7;" horiz-adv-x="530" 
d="M385 130v-5q21 -7 38 -21q15 -13 26 -34t11 -55v-45q0 -30 -11 -55.5t-30.5 -44.5t-47 -29.5t-61.5 -10.5h-240v60h240q34 0 57 23t23 57v45q0 30 -16 46t-54 24l-140 30q-53 11 -81.5 42t-28.5 88v55q0 34 11.5 56t26.5 35q16 16 37 24v5q-20 7 -35 21q-14 13 -24.5 34
t-10.5 55v30q0 61 41 100.5t109 39.5h220v-40l-20 -20h-200q-34 0 -57 -23t-23 -57v-30q0 -30 15.5 -46.5t49.5 -23.5l140 -30q53 -11 81.5 -42t28.5 -88v-55q0 -34 -11.5 -56t-25.5 -35q-17 -16 -38 -24zM390 245v55q0 30 -15.5 46t-49.5 24l-115 25q-20 -8 -35 -21
q-14 -12 -24.5 -30t-10.5 -44v-55q0 -30 15.5 -46t49.5 -24l115 -25q20 7 35 20q14 11 24.5 29t10.5 46z" />
    <glyph glyph-name="dieresis" unicode="&#xa8;" horiz-adv-x="335" 
d="M40 700h70v-100h-70v100zM225 700h70v-100h-70v100z" />
    <glyph glyph-name="copyright" unicode="&#xa9;" horiz-adv-x="930" 
d="M850 565v-430q0 -36 -12.5 -66t-35.5 -52t-55.5 -34.5t-71.5 -12.5h-420q-39 0 -71.5 12.5t-55.5 34.5t-35.5 52t-12.5 66v430q0 36 12.5 66t35.5 52t55.5 34.5t71.5 12.5h420q39 0 71.5 -12.5t55.5 -34.5t35.5 -52t12.5 -66zM155 135q0 -21 8 -39t21.5 -31.5t31.5 -21.5
t39 -8h420q21 0 39 8t31.5 21.5t21.5 31.5t8 39v430q0 21 -8 39t-21.5 31.5t-31.5 21.5t-39 8h-420q-21 0 -39 -8t-31.5 -21.5t-21.5 -31.5t-8 -39v-430zM600 170h-160q-64 0 -97 31.5t-33 88.5v120q0 57 33 88.5t97 31.5h160v-40l-20 -20h-140q-26 0 -43 -17t-17 -43v-120
q0 -26 17 -43t43 -17h160v-60z" />
    <glyph glyph-name="ordfeminine" unicode="&#xaa;" horiz-adv-x="375" 
d="M265 465v45h-125q-15 0 -27.5 -12.5t-12.5 -27.5v-20q0 -15 12.5 -27.5t27.5 -12.5h45q19 0 33.5 8.5t25.5 19.5q12 12 21 27zM215 650h-140v50h140q49 0 79.5 -29t30.5 -71v-240h-45l-5 50h-5q-9 -14 -22 -25q-11 -10 -26.5 -17.5t-36.5 -7.5h-45q-45 0 -72.5 26
t-27.5 64v20q0 38 27.5 64t72.5 26h125v40q0 23 -13.5 36.5t-36.5 13.5z" />
    <glyph glyph-name="guillemotleft" unicode="&#xab;" horiz-adv-x="460" 
d="M155 90l-105 180l105 180h60v-15l-95 -165l95 -165v-15h-60zM340 90l-105 180l105 180h60v-15l-95 -165l95 -165v-15h-60z" />
    <glyph glyph-name="logicalnot" unicode="&#xac;" horiz-adv-x="480" 
d="M360 250v110h-320v65h390v-175h-70z" />
    <glyph glyph-name="uni00AD" unicode="&#xad;" horiz-adv-x="475" 
d="M435 355v-65h-395v65h395z" />
    <glyph glyph-name="registered" unicode="&#xae;" horiz-adv-x="926" 
d="M848 565v-430q0 -36 -12.5 -66t-35.5 -52t-55.5 -34.5t-71.5 -12.5h-420q-39 0 -71.5 12.5t-55.5 34.5t-35.5 52t-12.5 66v430q0 36 12.5 66t35.5 52t55.5 34.5t71.5 12.5h420q39 0 71.5 -12.5t55.5 -34.5t35.5 -52t12.5 -66zM153 135q0 -21 8 -39t21.5 -31.5t31.5 -21.5
t39 -8h420q21 0 39 8t31.5 21.5t21.5 31.5t8 39v430q0 21 -8 39t-21.5 31.5t-31.5 21.5t-39 8h-420q-21 0 -39 -8t-31.5 -21.5t-21.5 -31.5t-8 -39v-430zM633 420v-10q0 -32 -11.5 -52.5t-25.5 -31.5q-17 -14 -38 -21l75 -115v-20h-70l-75 130h-95v-130h-70v360h190
q60 0 90 -28.5t30 -81.5zM393 360h120q23 0 36.5 13.5t13.5 36.5v10q0 23 -13.5 36.5t-36.5 13.5h-120v-110z" />
    <glyph glyph-name="macron" unicode="&#xaf;" horiz-adv-x="355" 
d="M315 700v-65h-275v65h275z" />
    <glyph glyph-name="degree" unicode="&#xb0;" horiz-adv-x="395" 
d="M345 490q0 -53 -35 -86.5t-95 -33.5h-35q-60 0 -95 33.5t-35 86.5v100q0 53 35 86.5t95 33.5h35q60 0 95 -33.5t35 -86.5v-100zM110 590v-100q0 -30 18 -47.5t52 -17.5h35q34 0 52 17.5t18 47.5v100q0 30 -18 47.5t-52 17.5h-35q-34 0 -52 -17.5t-18 -47.5z" />
    <glyph glyph-name="plusminus" unicode="&#xb1;" horiz-adv-x="505" 
d="M220 150v165h-180v65h180v185h65v-185h180v-65h-180v-165h175v-65h-415v65h175z" />
    <glyph glyph-name="twosuperior" unicode="&#xb2;" horiz-adv-x="335" 
d="M290 410v-50h-260v50l160 125q19 14 32 30t13 35q0 23 -13.5 36.5t-36.5 13.5h-150v50h150q53 0 81.5 -27.5t28.5 -72.5q0 -34 -19.5 -57t-45.5 -43l-110 -85v-5h170z" />
    <glyph glyph-name="threesuperior" unicode="&#xb3;" horiz-adv-x="315" 
d="M275 460q0 -45 -28.5 -72.5t-81.5 -27.5h-145v50h145q23 0 36.5 13.5t13.5 36.5t-13.5 36.5t-36.5 13.5h-75v50l100 85v5h-165v50h245v-50l-100 -85v-5q53 0 79 -27.5t26 -72.5z" />
    <glyph glyph-name="acute" unicode="&#xb4;" horiz-adv-x="235" 
d="M115 710h80l-100 -155h-55z" />
    <glyph glyph-name="mu" unicode="&#xb5;" 
d="M155 25h-5v-195h-70v680h70v-380q0 -34 23 -57t57 -23h90q28 0 49.5 14t36.5 31q17 20 29 45v370h70v-510h-45l-10 70h-5q-12 -22 -31 -40q-16 -16 -39 -28t-55 -12h-90q-17 0 -30.5 5.5t-23.5 12.5q-12 7 -21 17z" />
    <glyph glyph-name="paragraph" unicode="&#xb6;" horiz-adv-x="535" 
d="M50 490v80q0 60 35.5 95t99.5 35h340v-65h-90v-805h-70v805h-95v-805h-70v530h-15q-64 0 -99.5 35t-35.5 95z" />
    <glyph glyph-name="periodcentered" unicode="&#xb7;" horiz-adv-x="235" 
d="M80 395h75v-95h-75v95z" />
    <glyph glyph-name="cedilla" unicode="&#xb8;" horiz-adv-x="270" 
d="M70 -100v100h50v-50h20q42 0 66 -23.5t24 -61.5v-15q0 -38 -24 -61.5t-66 -23.5h-100v50h100q15 0 25 10t10 25v15q0 15 -10 25t-25 10h-70z" />
    <glyph glyph-name="onesuperior" unicode="&#xb9;" horiz-adv-x="215" 
d="M20 640v35l100 25h35v-340h-60v280h-75z" />
    <glyph glyph-name="ordmasculine" unicode="&#xba;" horiz-adv-x="395" 
d="M50 470v120q0 49 31.5 79.5t88.5 30.5h55q57 0 88.5 -30.5t31.5 -79.5v-120q0 -49 -31.5 -79.5t-88.5 -30.5h-55q-57 0 -88.5 30.5t-31.5 79.5zM285 470v120q0 26 -17 43t-43 17h-55q-26 0 -43 -17t-17 -43v-120q0 -26 17 -43t43 -17h55q26 0 43 17t17 43z" />
    <glyph glyph-name="guillemotright" unicode="&#xbb;" horiz-adv-x="460" 
d="M410 270l-105 -180h-60v15l95 165l-95 165v15h60zM225 270l-105 -180h-60v15l95 165l-95 165v15h60z" />
    <glyph glyph-name="onequarter" unicode="&#xbc;" horiz-adv-x="750" 
d="M40 640v35l100 25h35v-340h-60v280h-75zM525 700h55v-30l-425 -670h-55v30zM401 115l185 225h59v-225h45v-50h-45v-65h-60v65h-184v50zM580 260l-114 -140v-5h119v145h-5z" />
    <glyph glyph-name="onehalf" unicode="&#xbd;" horiz-adv-x="770" 
d="M40 640v35l100 25h35v-340h-60v280h-75zM520 700h55v-30l-425 -670h-55v30zM705 50v-50h-260v50l160 125q19 14 32 30t13 35q0 23 -13.5 36.5t-36.5 13.5h-150v50h150q53 0 81.5 -27.5t28.5 -72.5q0 -34 -19.5 -57t-45.5 -43l-110 -85v-5h170z" />
    <glyph glyph-name="threequarters" unicode="&#xbe;" horiz-adv-x="805" 
d="M590 700h55v-30l-425 -670h-55v30zM456 115l185 225h59v-225h45v-50h-45v-65h-60v65h-184v50zM635 260l-114 -140v-5h119v145h-5zM295 460q0 -45 -28.5 -72.5t-81.5 -27.5h-145v50h145q23 0 36.5 13.5t13.5 36.5t-13.5 36.5t-36.5 13.5h-75v50l100 85v5h-165v50h245v-50
l-100 -85v-5q53 0 79 -27.5t26 -72.5z" />
    <glyph glyph-name="questiondown" unicode="&#xbf;" horiz-adv-x="490" 
d="M340 415h-75v95h75v-95zM225 -105h235l20 -20v-45h-255q-39 0 -71.5 12.5t-55.5 34.5t-35.5 52t-12.5 66v30q0 56 32 93.5t73 56.5l55 25q26 12 43 34t17 56v20h65v-20q0 -60 -29 -95.5t-71 -54.5l-55 -25q-26 -12 -40.5 -30t-14.5 -60v-30q0 -21 8 -39t21.5 -31.5
t31.5 -21.5t39 -8z" />
    <glyph glyph-name="Agrave" unicode="&#xc0;" horiz-adv-x="605" 
d="M150 180l-60 -180h-75v30l245 670h85l245 -670v-30h-75l-60 180h-305zM430 245l-125 365h-5l-125 -365h255zM175 925h80l75 -155h-55z" />
    <glyph glyph-name="Aacute" unicode="&#xc1;" horiz-adv-x="605" 
d="M150 180l-60 -180h-75v30l245 670h85l245 -670v-30h-75l-60 180h-305zM430 245l-125 365h-5l-125 -365h255zM360 925h80l-100 -155h-55z" />
    <glyph glyph-name="Acircumflex" unicode="&#xc2;" horiz-adv-x="605" 
d="M150 180l-60 -180h-75v30l245 670h85l245 -670v-30h-75l-60 180h-305zM430 245l-125 365h-5l-125 -365h255zM460 760h-70l-85 110l-85 -110h-70l125 165h60z" />
    <glyph glyph-name="Atilde" unicode="&#xc3;" horiz-adv-x="605" 
d="M150 180l-60 -180h-75v30l245 670h85l245 -670v-30h-75l-60 180h-305zM430 245l-125 365h-5l-125 -365h255zM165 760v60q0 38 19.5 59t45.5 21q13 0 25 -5.5t21 -11.5q10 -8 19 -18l30 -30q4 -6 9 -10t10 -7t11 -3q8 0 14 6t6 14v60h55v-60q0 -38 -19.5 -59t-45.5 -21
q-13 0 -25 5.5t-21 12.5q-10 7 -19 17l-30 30q-4 6 -9 10t-10 7t-11 3q-8 0 -14 -6t-6 -14v-60h-55z" />
    <glyph glyph-name="Adieresis" unicode="&#xc4;" horiz-adv-x="605" 
d="M150 180l-60 -180h-75v30l245 670h85l245 -670v-30h-75l-60 180h-305zM430 245l-125 365h-5l-125 -365h255zM175 875h70v-100h-70v100zM360 875h70v-100h-70v100z" />
    <glyph glyph-name="Aring" unicode="&#xc5;" horiz-adv-x="605" 
d="M412 785v-40q0 -28 -14.5 -49.5t-39.5 -32.5l232 -633v-30h-75l-60 180h-305l-60 -180h-75v30l231 633q-25 11 -39.5 32.5t-14.5 49.5v40q0 38 26.5 64t68.5 26h30q42 0 68.5 -26t26.5 -64zM430 245l-125 365h-5l-125 -365h255zM287 700h30q19 0 32 13t13 32v40
q0 19 -13 32t-32 13h-30q-19 0 -32 -13t-13 -32v-40q0 -19 13 -32t32 -13z" />
    <glyph glyph-name="AE" unicode="&#xc6;" horiz-adv-x="905" 
d="M435 0v215h-281l-79 -215h-75v30l260 670h615v-45l-20 -20h-345v-245h270v-65h-270v-260h365v-65h-440zM178 280h257v355h-125z" />
    <glyph glyph-name="Ccedilla" unicode="&#xc7;" horiz-adv-x="580" 
d="M290 -100v100h-35q-39 0 -71.5 12.5t-55.5 34.5t-35.5 52t-12.5 66v370q0 36 12.5 66t35.5 52t55.5 34.5t71.5 12.5h290v-45l-20 -20h-270q-21 0 -39 -8t-31.5 -21.5t-21.5 -31.5t-8 -39v-370q0 -21 8 -39t21.5 -31.5t31.5 -21.5t39 -8h290v-65h-205v-50h20
q42 0 66 -23.5t24 -61.5v-15q0 -38 -24 -61.5t-66 -23.5h-100v50h100q15 0 25 10t10 25v15q0 15 -10 25t-25 10h-70z" />
    <glyph glyph-name="Egrave" unicode="&#xc8;" 
d="M100 0v700h455v-45l-20 -20h-360v-245h285v-65h-285v-260h380v-65h-455zM225 925h80l75 -155h-55z" />
    <glyph glyph-name="Eacute" unicode="&#xc9;" 
d="M100 0v700h455v-45l-20 -20h-360v-245h285v-65h-285v-260h380v-65h-455zM370 925h80l-100 -155h-55z" />
    <glyph glyph-name="Ecircumflex" unicode="&#xca;" 
d="M100 0v700h455v-45l-20 -20h-360v-245h285v-65h-285v-260h380v-65h-455zM490 775h-70l-85 110l-85 -110h-70l125 165h60z" />
    <glyph glyph-name="Edieresis" unicode="&#xcb;" 
d="M100 0v700h455v-45l-20 -20h-360v-245h285v-65h-285v-260h380v-65h-455zM205 895h70v-100h-70v100zM390 895h70v-100h-70v100z" />
    <glyph glyph-name="Igrave" unicode="&#xcc;" horiz-adv-x="235" 
d="M155 0h-75v700h75v-700zM-10 925h80l75 -155h-55z" />
    <glyph glyph-name="Iacute" unicode="&#xcd;" horiz-adv-x="235" 
d="M155 0h-75v700h75v-700zM165 925h80l-100 -155h-55z" />
    <glyph glyph-name="Icircumflex" unicode="&#xce;" horiz-adv-x="250" 
d="M160 0h-75v700h75v-700zM280 760h-70l-85 110l-85 -110h-70l125 165h60z" />
    <glyph glyph-name="Idieresis" unicode="&#xcf;" horiz-adv-x="245" 
d="M160 0h-75v700h75v-700zM-5 880h70v-100h-70v100zM180 880h70v-100h-70v100z" />
    <glyph glyph-name="Eth" unicode="&#xd0;" horiz-adv-x="685" 
d="M110 0v325h-70v55h70v320h320q39 0 71.5 -12.5t55.5 -34.5t35.5 -52t12.5 -66v-370q0 -36 -12.5 -66t-35.5 -52t-55.5 -34.5t-71.5 -12.5h-320zM185 635v-255h171v-55h-171v-260h245q21 0 39 8t31.5 21.5t21.5 31.5t8 39v370q0 21 -8 39t-21.5 31.5t-31.5 21.5t-39 8
h-245z" />
    <glyph glyph-name="Ntilde" unicode="&#xd1;" horiz-adv-x="690" 
d="M510 0l-340 575h-5l10 -130v-445h-75v700h80l340 -575h5l-10 130v445h75v-700h-80zM220 790v60q0 38 19.5 59t45.5 21q13 0 25 -5.5t21 -11.5q10 -8 19 -18l30 -30q4 -6 9 -10t10 -7t11 -3q8 0 14 6t6 14v60h55v-60q0 -38 -19.5 -59t-45.5 -21q-13 0 -25 5.5t-21 12.5
q-10 7 -19 17l-30 30q-4 6 -9 10t-10 7t-11 3q-8 0 -14 -6t-6 -14v-60h-55z" />
    <glyph glyph-name="Ograve" unicode="&#xd2;" horiz-adv-x="685" 
d="M80 545q0 36 12.5 66t35.5 52t55.5 34.5t71.5 12.5h175q39 0 71.5 -12.5t55.5 -34.5t35.5 -52t12.5 -66v-390q0 -36 -12.5 -66t-35.5 -52t-55.5 -34.5t-71.5 -12.5h-175q-39 0 -71.5 12.5t-55.5 34.5t-35.5 52t-12.5 66v390zM530 155v390q0 21 -8 39t-21.5 31.5
t-31.5 21.5t-39 8h-175q-21 0 -39 -8t-31.5 -21.5t-21.5 -31.5t-8 -39v-390q0 -21 8 -39t21.5 -31.5t31.5 -21.5t39 -8h175q21 0 39 8t31.5 21.5t21.5 31.5t8 39zM230 925h80l75 -155h-55z" />
    <glyph glyph-name="Oacute" unicode="&#xd3;" horiz-adv-x="685" 
d="M80 545q0 36 12.5 66t35.5 52t55.5 34.5t71.5 12.5h175q39 0 71.5 -12.5t55.5 -34.5t35.5 -52t12.5 -66v-390q0 -36 -12.5 -66t-35.5 -52t-55.5 -34.5t-71.5 -12.5h-175q-39 0 -71.5 12.5t-55.5 34.5t-35.5 52t-12.5 66v390zM530 155v390q0 21 -8 39t-21.5 31.5
t-31.5 21.5t-39 8h-175q-21 0 -39 -8t-31.5 -21.5t-21.5 -31.5t-8 -39v-390q0 -21 8 -39t21.5 -31.5t31.5 -21.5t39 -8h175q21 0 39 8t31.5 21.5t21.5 31.5t8 39zM385 925h80l-100 -155h-55z" />
    <glyph glyph-name="Ocircumflex" unicode="&#xd4;" horiz-adv-x="685" 
d="M80 545q0 36 12.5 66t35.5 52t55.5 34.5t71.5 12.5h175q39 0 71.5 -12.5t55.5 -34.5t35.5 -52t12.5 -66v-390q0 -36 -12.5 -66t-35.5 -52t-55.5 -34.5t-71.5 -12.5h-175q-39 0 -71.5 12.5t-55.5 34.5t-35.5 52t-12.5 66v390zM530 155v390q0 21 -8 39t-21.5 31.5
t-31.5 21.5t-39 8h-175q-21 0 -39 -8t-31.5 -21.5t-21.5 -31.5t-8 -39v-390q0 -21 8 -39t21.5 -31.5t31.5 -21.5t39 -8h175q21 0 39 8t31.5 21.5t21.5 31.5t8 39zM505 775h-70l-85 110l-85 -110h-70l125 165h60z" />
    <glyph glyph-name="Otilde" unicode="&#xd5;" horiz-adv-x="685" 
d="M80 545q0 36 12.5 66t35.5 52t55.5 34.5t71.5 12.5h175q39 0 71.5 -12.5t55.5 -34.5t35.5 -52t12.5 -66v-390q0 -36 -12.5 -66t-35.5 -52t-55.5 -34.5t-71.5 -12.5h-175q-39 0 -71.5 12.5t-55.5 34.5t-35.5 52t-12.5 66v390zM530 155v390q0 21 -8 39t-21.5 31.5
t-31.5 21.5t-39 8h-175q-21 0 -39 -8t-31.5 -21.5t-21.5 -31.5t-8 -39v-390q0 -21 8 -39t21.5 -31.5t31.5 -21.5t39 -8h175q21 0 39 8t31.5 21.5t21.5 31.5t8 39zM215 790v60q0 38 19.5 59t45.5 21q13 0 25 -5.5t21 -11.5q10 -8 19 -18l30 -30q4 -6 9 -10t10 -7t11 -3
q8 0 14 6t6 14v60h55v-60q0 -38 -19.5 -59t-45.5 -21q-13 0 -25 5.5t-21 12.5q-10 7 -19 17l-30 30q-4 6 -9 10t-10 7t-11 3q-8 0 -14 -6t-6 -14v-60h-55z" />
    <glyph glyph-name="Odieresis" unicode="&#xd6;" horiz-adv-x="685" 
d="M80 545q0 36 12.5 66t35.5 52t55.5 34.5t71.5 12.5h175q39 0 71.5 -12.5t55.5 -34.5t35.5 -52t12.5 -66v-390q0 -36 -12.5 -66t-35.5 -52t-55.5 -34.5t-71.5 -12.5h-175q-39 0 -71.5 12.5t-55.5 34.5t-35.5 52t-12.5 66v390zM530 155v390q0 21 -8 39t-21.5 31.5
t-31.5 21.5t-39 8h-175q-21 0 -39 -8t-31.5 -21.5t-21.5 -31.5t-8 -39v-390q0 -21 8 -39t21.5 -31.5t31.5 -21.5t39 -8h175q21 0 39 8t31.5 21.5t21.5 31.5t8 39zM220 895h70v-100h-70v100zM405 895h70v-100h-70v100z" />
    <glyph glyph-name="multiply" unicode="&#xd7;" horiz-adv-x="490" 
d="M430 175l-45 -45l-140 150l-140 -150l-45 45l140 150l-140 150l45 45l140 -150l140 150l45 -45l-140 -150z" />
    <glyph glyph-name="Oslash" unicode="&#xd8;" horiz-adv-x="685" 
d="M605 545v-390q0 -36 -12.5 -66t-35.5 -52t-55.5 -34.5t-71.5 -12.5h-175q-39 0 -71.5 12.5t-55.5 34.5t-35.5 52t-12.5 66v390q0 36 12.5 66t35.5 52t55.5 34.5t71.5 12.5h175q39 0 71.5 -12.5t55.5 -34.5t35.5 -52t12.5 -66zM155 155q0 -13 2.5 -23.5t5.5 -17.5
q3 -8 7 -14l295 540q-6 1 -12 3q-5 1 -11 1.5t-12 0.5h-175q-21 0 -39 -8t-31.5 -21.5t-21.5 -31.5t-8 -39v-390zM530 545q0 13 -2.5 22.5t-4.5 15.5q-4 7 -8 12l-295 -535l10 -2q5 -2 11 -2.5t14 -0.5h175q21 0 39 8t31.5 21.5t21.5 31.5t8 39v390z" />
    <glyph glyph-name="Ugrave" unicode="&#xd9;" horiz-adv-x="700" 
d="M425 -10h-150q-39 0 -71.5 12.5t-55.5 34.5t-35.5 52t-12.5 66v545h75v-545q0 -21 8 -39t21.5 -31.5t31.5 -21.5t39 -8h150q21 0 39 8t31.5 21.5t21.5 31.5t8 39v545h75v-545q0 -36 -12.5 -66t-35.5 -52t-55.5 -34.5t-71.5 -12.5zM245 925h80l75 -155h-55z" />
    <glyph glyph-name="Uacute" unicode="&#xda;" horiz-adv-x="700" 
d="M425 -10h-150q-39 0 -71.5 12.5t-55.5 34.5t-35.5 52t-12.5 66v545h75v-545q0 -21 8 -39t21.5 -31.5t31.5 -21.5t39 -8h150q21 0 39 8t31.5 21.5t21.5 31.5t8 39v545h75v-545q0 -36 -12.5 -66t-35.5 -52t-55.5 -34.5t-71.5 -12.5zM400 925h80l-100 -155h-55z" />
    <glyph glyph-name="Ucircumflex" unicode="&#xdb;" horiz-adv-x="700" 
d="M425 -10h-150q-39 0 -71.5 12.5t-55.5 34.5t-35.5 52t-12.5 66v545h75v-545q0 -21 8 -39t21.5 -31.5t31.5 -21.5t39 -8h150q21 0 39 8t31.5 21.5t21.5 31.5t8 39v545h75v-545q0 -36 -12.5 -66t-35.5 -52t-55.5 -34.5t-71.5 -12.5zM510 770h-70l-85 110l-85 -110h-70
l125 165h60z" />
    <glyph glyph-name="Udieresis" unicode="&#xdc;" horiz-adv-x="700" 
d="M425 -10h-150q-39 0 -71.5 12.5t-55.5 34.5t-35.5 52t-12.5 66v545h75v-545q0 -21 8 -39t21.5 -31.5t31.5 -21.5t39 -8h150q21 0 39 8t31.5 21.5t21.5 31.5t8 39v545h75v-545q0 -36 -12.5 -66t-35.5 -52t-55.5 -34.5t-71.5 -12.5zM230 885h70v-100h-70v100zM415 885h70
v-100h-70v100z" />
    <glyph glyph-name="Yacute" unicode="&#xdd;" horiz-adv-x="565" 
d="M320 215v-215h-75v215l-235 455v30h75l195 -405h5l195 405h75v-30zM340 920h80l-100 -155h-55z" />
    <glyph glyph-name="Thorn" unicode="&#xde;" horiz-adv-x="650" 
d="M580 430v-175q0 -36 -12.5 -66t-36.5 -52t-58.5 -34.5t-77.5 -12.5h-220v-105h-75v730h75v-120h230q39 0 71.5 -12.5t55.5 -34.5t35.5 -52t12.5 -66zM405 530h-230v-375h220q49 0 79.5 29t30.5 71v175q0 21 -8 39t-21.5 31.5t-31.5 21.5t-39 8z" />
    <glyph glyph-name="germandbls" unicode="&#xdf;" horiz-adv-x="575" 
d="M445 560q0 -30 -13.5 -52t-29 -40.5t-29 -36.5t-13.5 -41v-20q0 -17 13.5 -30t34.5 -24t44.5 -22.5t44.5 -26.5t34.5 -36t13.5 -51v-40q0 -30 -11 -55.5t-30.5 -44.5t-47 -29.5t-61.5 -10.5h-125v60h125q34 0 57 23t23 57v40q0 18 -13.5 30.5t-34.5 23.5t-44.5 22.5
t-44.5 26.5t-34.5 36t-13.5 51v20q0 30 13.5 52t29 40.5t29 37t13.5 40.5q0 34 -23 57t-57 23h-55q-38 0 -64 -26t-26 -64v-550h-70v550q0 30 12.5 57.5t34 48t50.5 32.5t63 12h55q34 0 61.5 -10.5t47 -29.5t30.5 -44.5t11 -55.5z" />
    <glyph glyph-name="agrave" unicode="&#xe0;" horiz-adv-x="530" 
d="M450 0h-45l-10 70h-5q-12 -22 -31 -40q-16 -16 -39 -28t-55 -12h-80q-72 0 -111 40t-39 100v30q0 30 11 55.5t30.5 44.5t47 29.5t61.5 10.5h195v70q0 34 -23 57t-57 23h-220v60h220q34 0 61.5 -10.5t47 -29.5t30.5 -44.5t11 -55.5v-370zM185 50h80q28 0 49.5 14t36.5 31
q17 20 29 45v100h-195q-34 0 -57 -23t-23 -57v-30q0 -34 23 -57t57 -23zM140 745h80l75 -155h-55z" />
    <glyph glyph-name="aacute" unicode="&#xe1;" horiz-adv-x="530" 
d="M450 0h-45l-10 70h-5q-12 -22 -31 -40q-16 -16 -39 -28t-55 -12h-80q-72 0 -111 40t-39 100v30q0 30 11 55.5t30.5 44.5t47 29.5t61.5 10.5h195v70q0 34 -23 57t-57 23h-220v60h220q34 0 61.5 -10.5t47 -29.5t30.5 -44.5t11 -55.5v-370zM185 50h80q28 0 49.5 14t36.5 31
q17 20 29 45v100h-195q-34 0 -57 -23t-23 -57v-30q0 -34 23 -57t57 -23zM300 745h80l-100 -155h-55z" />
    <glyph glyph-name="acircumflex" unicode="&#xe2;" horiz-adv-x="530" 
d="M450 0h-45l-10 70h-5q-12 -22 -31 -40q-16 -16 -39 -28t-55 -12h-80q-72 0 -111 40t-39 100v30q0 30 11 55.5t30.5 44.5t47 29.5t61.5 10.5h195v70q0 34 -23 57t-57 23h-220v60h220q34 0 61.5 -10.5t47 -29.5t30.5 -44.5t11 -55.5v-370zM185 50h80q28 0 49.5 14t36.5 31
q17 20 29 45v100h-195q-34 0 -57 -23t-23 -57v-30q0 -34 23 -57t57 -23zM420 590h-70l-85 110l-85 -110h-70l125 165h60z" />
    <glyph glyph-name="atilde" unicode="&#xe3;" horiz-adv-x="530" 
d="M450 0h-45l-10 70h-5q-12 -22 -31 -40q-16 -16 -39 -28t-55 -12h-80q-72 0 -111 40t-39 100v30q0 30 11 55.5t30.5 44.5t47 29.5t61.5 10.5h195v70q0 34 -23 57t-57 23h-220v60h220q34 0 61.5 -10.5t47 -29.5t30.5 -44.5t11 -55.5v-370zM185 50h80q28 0 49.5 14t36.5 31
q17 20 29 45v100h-195q-34 0 -57 -23t-23 -57v-30q0 -34 23 -57t57 -23zM125 600v60q0 38 19.5 59t45.5 21q13 0 25 -5.5t21 -11.5q10 -8 19 -18l30 -30q4 -6 9 -10t10 -7t11 -3q8 0 14 6t6 14v60h55v-60q0 -38 -19.5 -59t-45.5 -21q-13 0 -25 5.5t-21 12.5q-10 7 -19 17
l-30 30q-4 6 -9 10t-10 7t-11 3q-8 0 -14 -6t-6 -14v-60h-55z" />
    <glyph glyph-name="adieresis" unicode="&#xe4;" horiz-adv-x="530" 
d="M450 0h-45l-10 70h-5q-12 -22 -31 -40q-16 -16 -39 -28t-55 -12h-80q-72 0 -111 40t-39 100v30q0 30 11 55.5t30.5 44.5t47 29.5t61.5 10.5h195v70q0 34 -23 57t-57 23h-220v60h220q34 0 61.5 -10.5t47 -29.5t30.5 -44.5t11 -55.5v-370zM185 50h80q28 0 49.5 14t36.5 31
q17 20 29 45v100h-195q-34 0 -57 -23t-23 -57v-30q0 -34 23 -57t57 -23zM145 710h70v-100h-70v100zM330 710h70v-100h-70v100z" />
    <glyph glyph-name="aring" unicode="&#xe5;" horiz-adv-x="530" 
d="M450 0h-45l-10 70h-5q-12 -22 -31 -40q-16 -16 -39 -28t-55 -12h-80q-72 0 -111 40t-39 100v30q0 30 11 55.5t30.5 44.5t47 29.5t61.5 10.5h195v70q0 34 -23 57t-57 23h-220v60h220q34 0 61.5 -10.5t47 -29.5t30.5 -44.5t11 -55.5v-370zM185 50h80q28 0 49.5 14t36.5 31
q17 20 29 45v100h-195q-34 0 -57 -23t-23 -57v-30q0 -34 23 -57t57 -23zM365 705v-40q0 -38 -26.5 -64t-68.5 -26h-30q-42 0 -68.5 26t-26.5 64v40q0 38 26.5 64t68.5 26h30q42 0 68.5 -26t26.5 -64zM240 620h30q19 0 32 13t13 32v40q0 19 -13 32t-32 13h-30q-19 0 -32 -13
t-13 -32v-40q0 -19 13 -32t32 -13z" />
    <glyph glyph-name="ae" unicode="&#xe6;" horiz-adv-x="870" 
d="M410 450h5q7 20 22 35q13 14 35 24.5t58 10.5h110q34 0 61.5 -10.5t47 -29.5t30.5 -44.5t11 -55.5v-145h-340v-95q0 -34 23 -57t57 -23h240v-60h-240q-34 0 -57 11.5t-37 26.5q-16 16 -26 37h-5q-10 -24 -29 -42q-17 -18 -43 -30.5t-68 -12.5h-80q-72 0 -111 40t-39 100
v25q0 30 11 55.5t30.5 44.5t47 29.5t61.5 10.5h195v75q0 34 -23 57t-57 23h-220v60h220q30 0 51 -9.5t34 -20.5q15 -13 25 -30zM185 50h80q28 0 49.5 14t36.5 31q17 20 29 45v95h-195q-34 0 -57 -23t-23 -57v-25q0 -34 23 -57t57 -23zM450 380v-85h270v85q0 34 -23 57
t-57 23h-110q-34 0 -57 -23t-23 -57z" />
    <glyph glyph-name="ccedilla" unicode="&#xe7;" horiz-adv-x="480" 
d="M230 -100v100h-10q-72 0 -111 40t-39 100v230q0 30 11 55.5t30.5 44.5t47 29.5t61.5 10.5h230v-40l-20 -20h-210q-34 0 -57 -23t-23 -57v-230q0 -34 23 -57t57 -23h230v-60h-170v-50h20q42 0 66 -23.5t24 -61.5v-15q0 -38 -24 -61.5t-66 -23.5h-100v50h100q15 0 25 10
t10 25v15q0 15 -10 25t-25 10h-70z" />
    <glyph glyph-name="egrave" unicode="&#xe8;" horiz-adv-x="550" 
d="M460 -2h-240q-72 0 -111 40t-39 100v240q0 30 11 55.5t30.5 44.5t47 29.5t61.5 10.5h110q34 0 61.5 -10.5t47 -29.5t30.5 -44.5t11 -55.5v-155h-340v-85q0 -34 23 -57t57 -23h240v-60zM140 378v-95h270v95q0 34 -23 57t-57 23h-110q-34 0 -57 -23t-23 -57zM170 745h80
l75 -155h-55z" />
    <glyph glyph-name="eacute" unicode="&#xe9;" horiz-adv-x="550" 
d="M460 0h-240q-72 0 -111 40t-39 100v240q0 30 11 55.5t30.5 44.5t47 29.5t61.5 10.5h110q34 0 61.5 -10.5t47 -29.5t30.5 -44.5t11 -55.5v-155h-340v-85q0 -34 23 -57t57 -23h240v-60zM140 380v-95h270v95q0 34 -23 57t-57 23h-110q-34 0 -57 -23t-23 -57zM325 745h80
l-100 -155h-55z" />
    <glyph glyph-name="ecircumflex" unicode="&#xea;" horiz-adv-x="550" 
d="M460 0h-240q-72 0 -111 40t-39 100v240q0 30 11 55.5t30.5 44.5t47 29.5t61.5 10.5h110q34 0 61.5 -10.5t47 -29.5t30.5 -44.5t11 -55.5v-155h-340v-85q0 -34 23 -57t57 -23h240v-60zM140 380v-95h270v95q0 34 -23 57t-57 23h-110q-34 0 -57 -23t-23 -57zM445 590h-70
l-85 110l-85 -110h-70l125 165h60z" />
    <glyph glyph-name="edieresis" unicode="&#xeb;" horiz-adv-x="550" 
d="M460 0h-240q-72 0 -111 40t-39 100v240q0 30 11 55.5t30.5 44.5t47 29.5t61.5 10.5h110q34 0 61.5 -10.5t47 -29.5t30.5 -44.5t11 -55.5v-155h-340v-85q0 -34 23 -57t57 -23h240v-60zM140 380v-95h270v95q0 34 -23 57t-57 23h-110q-34 0 -57 -23t-23 -57zM150 715h70
v-100h-70v100zM335 715h70v-100h-70v100z" />
    <glyph glyph-name="igrave" unicode="&#xec;" horiz-adv-x="225" 
d="M-10 745h80l75 -155h-55zM155 510v-510h-75v510h75z" />
    <glyph glyph-name="iacute" unicode="&#xed;" horiz-adv-x="220" 
d="M150 745h80l-100 -155h-55zM145 510v-510h-75v510h75z" />
    <glyph glyph-name="icircumflex" unicode="&#xee;" horiz-adv-x="250" 
d="M165 510v-510h-75v510h75zM280 590h-70l-85 110l-85 -110h-70l125 165h60z" />
    <glyph glyph-name="idieresis" unicode="&#xef;" horiz-adv-x="235" 
d="M-10 710h70v-100h-70v100zM175 710h70v-100h-70v100zM155 510v-510h-75v510h75z" />
    <glyph glyph-name="eth" unicode="&#xf0;" horiz-adv-x="555" 
d="M60 310q0 61 41 100.5t109 39.5h195v40q0 53 -23.5 80t-61.5 35l-100 20l-20 -80l-60 10l20 80l-80 15l15 65l80 -15l20 75l60 -10l-20 -75l95 -20q30 -6 56.5 -21t46 -38t31 -53t11.5 -68v-360q0 -60 -39 -100t-111 -40h-115q-34 0 -61.5 10.5t-47 29.5t-30.5 44.5
t-11 55.5v180zM405 130v260h-195q-34 0 -57 -23t-23 -57v-180q0 -34 23 -57t57 -23h115q34 0 57 23t23 57z" />
    <glyph glyph-name="ntilde" unicode="&#xf1;" 
d="M505 0h-70v380q0 34 -23 57t-57 23h-90q-28 0 -49.5 -14t-36.5 -31q-17 -20 -29 -45v-370h-70v510h45l10 -70h5q12 22 31 40q16 16 39 28t55 12h90q34 0 61.5 -10.5t47 -29.5t30.5 -44.5t11 -55.5v-380zM160 605v60q0 38 19.5 59t45.5 21q13 0 25 -5.5t21 -11.5
q10 -8 19 -18l30 -30q4 -6 9 -10t10 -7t11 -3q8 0 14 6t6 14v60h55v-60q0 -38 -19.5 -59t-45.5 -21q-13 0 -25 5.5t-21 12.5q-10 7 -19 17l-30 30q-4 6 -9 10t-10 7t-11 3q-8 0 -14 -6t-6 -14v-60h-55z" />
    <glyph glyph-name="ograve" unicode="&#xf2;" horiz-adv-x="565" 
d="M140 380v-250q0 -34 23 -57t57 -23h125q34 0 57 23t23 57v250q0 34 -23 57t-57 23h-125q-34 0 -57 -23t-23 -57zM70 130v250q0 30 11 55.5t30.5 44.5t47 29.5t61.5 10.5h125q34 0 61.5 -10.5t47 -29.5t30.5 -44.5t11 -55.5v-250q0 -30 -11 -55.5t-30.5 -44.5t-47 -29.5
t-61.5 -10.5h-125q-72 0 -111 40t-39 100zM175 745h80l75 -155h-55z" />
    <glyph glyph-name="oacute" unicode="&#xf3;" horiz-adv-x="565" 
d="M140 380v-250q0 -34 23 -57t57 -23h125q34 0 57 23t23 57v250q0 34 -23 57t-57 23h-125q-34 0 -57 -23t-23 -57zM70 130v250q0 30 11 55.5t30.5 44.5t47 29.5t61.5 10.5h125q34 0 61.5 -10.5t47 -29.5t30.5 -44.5t11 -55.5v-250q0 -30 -11 -55.5t-30.5 -44.5t-47 -29.5
t-61.5 -10.5h-125q-72 0 -111 40t-39 100zM340 745h80l-100 -155h-55z" />
    <glyph glyph-name="ocircumflex" unicode="&#xf4;" horiz-adv-x="565" 
d="M140 380v-250q0 -34 23 -57t57 -23h125q34 0 57 23t23 57v250q0 34 -23 57t-57 23h-125q-34 0 -57 -23t-23 -57zM70 130v250q0 30 11 55.5t30.5 44.5t47 29.5t61.5 10.5h125q34 0 61.5 -10.5t47 -29.5t30.5 -44.5t11 -55.5v-250q0 -30 -11 -55.5t-30.5 -44.5t-47 -29.5
t-61.5 -10.5h-125q-72 0 -111 40t-39 100zM445 595h-70l-85 110l-85 -110h-70l125 165h60z" />
    <glyph glyph-name="otilde" unicode="&#xf5;" horiz-adv-x="565" 
d="M140 380v-250q0 -34 23 -57t57 -23h125q34 0 57 23t23 57v250q0 34 -23 57t-57 23h-125q-34 0 -57 -23t-23 -57zM70 130v250q0 30 11 55.5t30.5 44.5t47 29.5t61.5 10.5h125q34 0 61.5 -10.5t47 -29.5t30.5 -44.5t11 -55.5v-250q0 -30 -11 -55.5t-30.5 -44.5t-47 -29.5
t-61.5 -10.5h-125q-72 0 -111 40t-39 100zM155 600v60q0 38 19.5 59t45.5 21q13 0 25 -5.5t21 -11.5q10 -8 19 -18l30 -30q4 -6 9 -10t10 -7t11 -3q8 0 14 6t6 14v60h55v-60q0 -38 -19.5 -59t-45.5 -21q-13 0 -25 5.5t-21 12.5q-10 7 -19 17l-30 30q-4 6 -9 10t-10 7t-11 3
q-8 0 -14 -6t-6 -14v-60h-55z" />
    <glyph glyph-name="odieresis" unicode="&#xf6;" horiz-adv-x="565" 
d="M140 380v-250q0 -34 23 -57t57 -23h125q34 0 57 23t23 57v250q0 34 -23 57t-57 23h-125q-34 0 -57 -23t-23 -57zM70 130v250q0 30 11 55.5t30.5 44.5t47 29.5t61.5 10.5h125q34 0 61.5 -10.5t47 -29.5t30.5 -44.5t11 -55.5v-250q0 -30 -11 -55.5t-30.5 -44.5t-47 -29.5
t-61.5 -10.5h-125q-72 0 -111 40t-39 100zM160 705h70v-100h-70v100zM345 705h70v-100h-70v100z" />
    <glyph glyph-name="divide" unicode="&#xf7;" horiz-adv-x="505" 
d="M465 355v-65h-425v65h425zM215 485v95h75v-95h-75zM215 65v95h75v-95h-75z" />
    <glyph glyph-name="oslash" unicode="&#xf8;" horiz-adv-x="565" 
d="M70 130v250q0 30 11 55.5t30.5 44.5t47 29.5t61.5 10.5h125q34 0 61.5 -10.5t47 -29.5t30.5 -44.5t11 -55.5v-250q0 -30 -11 -55.5t-30.5 -44.5t-47 -29.5t-61.5 -10.5h-125q-72 0 -111 40t-39 100zM425 380q0 8 -1 14t-1 11q-2 6 -3 10l-230 -360q4 -1 9 -2
q5 -2 10 -2.5t11 -0.5h125q34 0 57 23t23 57v250zM140 380v-250q0 -8 1 -14t2 -11l2 -10l230 360q-4 1 -9 3q-5 1 -10 1.5t-11 0.5h-125q-34 0 -57 -23t-23 -57z" />
    <glyph glyph-name="ugrave" unicode="&#xf9;" 
d="M80 510h70v-380q0 -34 23 -57t57 -23h90q28 0 49.5 14t36.5 31q17 20 29 45v370h70v-510h-45l-10 70h-5q-12 -22 -31 -40q-16 -16 -39 -28t-55 -12h-90q-34 0 -61.5 10.5t-47 29.5t-30.5 44.5t-11 55.5v380zM190 745h80l75 -155h-55z" />
    <glyph glyph-name="uacute" unicode="&#xfa;" 
d="M80 510h70v-380q0 -34 23 -57t57 -23h90q28 0 49.5 14t36.5 31q17 20 29 45v370h70v-510h-45l-10 70h-5q-12 -22 -31 -40q-16 -16 -39 -28t-55 -12h-90q-34 0 -61.5 10.5t-47 29.5t-30.5 44.5t-11 55.5v380zM340 745h80l-100 -155h-55z" />
    <glyph glyph-name="ucircumflex" unicode="&#xfb;" 
d="M80 510h70v-380q0 -34 23 -57t57 -23h90q28 0 49.5 14t36.5 31q17 20 29 45v370h70v-510h-45l-10 70h-5q-12 -22 -31 -40q-16 -16 -39 -28t-55 -12h-90q-34 0 -61.5 10.5t-47 29.5t-30.5 44.5t-11 55.5v380zM450 590h-70l-85 110l-85 -110h-70l125 165h60z" />
    <glyph glyph-name="udieresis" unicode="&#xfc;" 
d="M80 510h70v-380q0 -34 23 -57t57 -23h90q28 0 49.5 14t36.5 31q17 20 29 45v370h70v-510h-45l-10 70h-5q-12 -22 -31 -40q-16 -16 -39 -28t-55 -12h-90q-34 0 -61.5 10.5t-47 29.5t-30.5 44.5t-11 55.5v380zM175 715h70v-100h-70v100zM360 715h70v-100h-70v100z" />
    <glyph glyph-name="yacute" unicode="&#xfd;" horiz-adv-x="485" 
d="M465 480l-180 -480q-34 -90 -75.5 -130t-109.5 -40h-25v60h25q73 0 110 110l-190 480v30h70l155 -430h5l145 430h70v-30zM285 745h80l-100 -155h-55z" />
    <glyph glyph-name="thorn" unicode="&#xfe;" horiz-adv-x="575" 
d="M150 700v-190h205q68 0 109 -39.5t41 -100.5v-230q0 -30 -11 -55.5t-30.5 -44.5t-47 -29.5t-61.5 -10.5h-205v-170h-70v870h70zM355 450h-205v-390h205q34 0 57 23t23 57v230q0 34 -23 57t-57 23z" />
    <glyph glyph-name="ydieresis" unicode="&#xff;" horiz-adv-x="485" 
d="M465 480l-180 -480q-34 -90 -75.5 -130t-109.5 -40h-25v60h25q73 0 110 110l-190 480v30h70l155 -430h5l145 430h70v-30zM115 710h70v-100h-70v100zM300 710h70v-100h-70v100z" />
    <glyph glyph-name="Amacron" unicode="&#x100;" horiz-adv-x="605" 
d="M150 180l-60 -180h-75v30l245 670h85l245 -670v-30h-75l-60 180h-305zM430 245l-125 365h-5l-125 -365h255zM435 860v-65h-275v65h275z" />
    <glyph glyph-name="amacron" unicode="&#x101;" horiz-adv-x="530" 
d="M450 0h-45l-10 70h-5q-12 -22 -31 -40q-16 -16 -39 -28t-55 -12h-80q-72 0 -111 40t-39 100v30q0 30 11 55.5t30.5 44.5t47 29.5t61.5 10.5h195v70q0 34 -23 57t-57 23h-220v60h220q34 0 61.5 -10.5t47 -29.5t30.5 -44.5t11 -55.5v-370zM185 50h80q28 0 49.5 14t36.5 31
q17 20 29 45v100h-195q-34 0 -57 -23t-23 -57v-30q0 -34 23 -57t57 -23zM395 690v-65h-275v65h275z" />
    <glyph glyph-name="Abreve" unicode="&#x102;" horiz-adv-x="605" 
d="M150 180l-60 -180h-75v30l245 670h85l245 -670v-30h-75l-60 180h-305zM430 245l-125 365h-5l-125 -365h255zM330 775h-55q-53 0 -81.5 28t-28.5 77v30h60v-30q0 -26 13.5 -40.5t36.5 -14.5h55q23 0 36.5 14.5t13.5 40.5v30h60v-30q0 -49 -28.5 -77t-81.5 -28z" />
    <glyph glyph-name="abreve" unicode="&#x103;" horiz-adv-x="530" 
d="M450 0h-45l-10 70h-5q-12 -22 -31 -40q-16 -16 -39 -28t-55 -12h-80q-72 0 -111 40t-39 100v30q0 30 11 55.5t30.5 44.5t47 29.5t61.5 10.5h195v70q0 34 -23 57t-57 23h-220v60h220q34 0 61.5 -10.5t47 -29.5t30.5 -44.5t11 -55.5v-370zM185 50h80q28 0 49.5 14t36.5 31
q17 20 29 45v100h-195q-34 0 -57 -23t-23 -57v-30q0 -34 23 -57t57 -23zM298 600h-55q-53 0 -81.5 28t-28.5 77v30h60v-30q0 -26 13.5 -40.5t36.5 -14.5h55q23 0 36.5 14.5t13.5 40.5v30h60v-30q0 -49 -28.5 -77t-81.5 -28z" />
    <glyph glyph-name="Aogonek" unicode="&#x104;" horiz-adv-x="605" 
d="M535 0h-20l-60 180h-305l-60 -180h-75v30l245 670h85l245 -670v-35q-27 -16 -47 -36q-20 -17 -34 -38t-14 -46q0 -19 13 -32t32 -13h60v-50h-60q-49 0 -77 26.5t-28 68.5q0 28 15.5 51t34.5 40q22 19 50 34zM430 245l-125 365h-5l-125 -365h255z" />
    <glyph glyph-name="aogonek" unicode="&#x105;" horiz-adv-x="530" 
d="M395 0h10l-10 70h-5q-12 -22 -31 -40q-16 -16 -39 -28t-55 -12h-80q-72 0 -111 40t-39 100v30q0 30 11 55.5t30.5 44.5t47 29.5t61.5 10.5h195v70q0 34 -23 57t-57 23h-220v60h220q34 0 61.5 -10.5t47 -29.5t30.5 -44.5t11 -55.5v-375q-27 -16 -47 -36q-20 -17 -34 -38
t-14 -46q0 -19 13 -32t32 -13h60v-50h-60q-49 0 -77 26.5t-28 68.5q0 28 15.5 51t34.5 40q22 19 50 34zM185 50h80q28 0 49.5 14t36.5 31q17 20 29 45v100h-195q-34 0 -57 -23t-23 -57v-30q0 -34 23 -57t57 -23z" />
    <glyph glyph-name="Cacute" unicode="&#x106;" horiz-adv-x="580" 
d="M385 925h80l-100 -155h-55zM545 65v-65h-290q-39 0 -71.5 12.5t-55.5 34.5t-35.5 52t-12.5 66v370q0 36 12.5 66t35.5 52t55.5 34.5t71.5 12.5h290v-45l-20 -20h-270q-21 0 -39 -8t-31.5 -21.5t-21.5 -31.5t-8 -39v-370q0 -21 8 -39t21.5 -31.5t31.5 -21.5t39 -8h290z
" />
    <glyph glyph-name="cacute" unicode="&#x107;" horiz-adv-x="480" 
d="M430 450h-210q-34 0 -57 -23t-23 -57v-230q0 -34 23 -57t57 -23h230v-60h-230q-72 0 -111 40t-39 100v230q0 30 11 55.5t30.5 44.5t47 29.5t61.5 10.5h230v-40zM325 745h80l-100 -155h-55z" />
    <glyph glyph-name="Ccircumflex" unicode="&#x108;" horiz-adv-x="580" 
d="M495 775h-70l-85 110l-85 -110h-70l125 165h60zM545 65v-65h-290q-39 0 -71.5 12.5t-55.5 34.5t-35.5 52t-12.5 66v370q0 36 12.5 66t35.5 52t55.5 34.5t71.5 12.5h290v-45l-20 -20h-270q-21 0 -39 -8t-31.5 -21.5t-21.5 -31.5t-8 -39v-370q0 -21 8 -39t21.5 -31.5
t31.5 -21.5t39 -8h290z" />
    <glyph glyph-name="ccircumflex" unicode="&#x109;" horiz-adv-x="480" 
d="M430 450h-210q-34 0 -57 -23t-23 -57v-230q0 -34 23 -57t57 -23h230v-60h-230q-72 0 -111 40t-39 100v230q0 30 11 55.5t30.5 44.5t47 29.5t61.5 10.5h230v-40zM440 590h-70l-85 110l-85 -110h-70l125 165h60z" />
    <glyph glyph-name="Ccaron" unicode="&#x10c;" horiz-adv-x="580" 
d="M425 925h70l-125 -165h-60l-125 165h70l85 -110zM545 65v-65h-290q-39 0 -71.5 12.5t-55.5 34.5t-35.5 52t-12.5 66v370q0 36 12.5 66t35.5 52t55.5 34.5t71.5 12.5h290v-45l-20 -20h-270q-21 0 -39 -8t-31.5 -21.5t-21.5 -31.5t-8 -39v-370q0 -21 8 -39t21.5 -31.5
t31.5 -21.5t39 -8h290z" />
    <glyph glyph-name="ccaron" unicode="&#x10d;" horiz-adv-x="480" 
d="M430 450h-210q-34 0 -57 -23t-23 -57v-230q0 -34 23 -57t57 -23h230v-60h-230q-72 0 -111 40t-39 100v230q0 30 11 55.5t30.5 44.5t47 29.5t61.5 10.5h230v-40zM360 755h70l-125 -165h-60l-125 165h70l85 -110z" />
    <glyph glyph-name="Dcaron" unicode="&#x10e;" horiz-adv-x="675" 
d="M100 0v700h320q39 0 71.5 -12.5t55.5 -34.5t35.5 -52t12.5 -66v-370q0 -36 -12.5 -66t-35.5 -52t-55.5 -34.5t-71.5 -12.5h-320zM175 635v-570h245q21 0 39 8t31.5 21.5t21.5 31.5t8 39v370q0 21 -8 39t-21.5 31.5t-31.5 21.5t-39 8h-245zM415 930h70l-125 -165h-60
l-125 165h70l85 -110z" />
    <glyph glyph-name="dcaron" unicode="&#x10f;" horiz-adv-x="655" 
d="M310 -10h-90q-34 0 -61.5 10.5t-47 29.5t-30.5 44.5t-11 55.5v240q0 30 11 55.5t30.5 44.5t47 29.5t61.5 10.5h205v190h70v-700h-45l-10 70h-5q-12 -22 -31 -40q-16 -16 -39 -28t-55 -12zM220 50h90q28 0 49.5 14t36.5 31q17 20 29 45v310h-205q-34 0 -57 -23t-23 -57
v-240q0 -34 23 -57t57 -23zM580 700h75v-55l-40 -125h-35v180z" />
    <glyph glyph-name="Dcroat" unicode="&#x110;" horiz-adv-x="685" 
d="M110 0v325h-70v55h70v320h320q39 0 71.5 -12.5t55.5 -34.5t35.5 -52t12.5 -66v-370q0 -36 -12.5 -66t-35.5 -52t-55.5 -34.5t-71.5 -12.5h-320zM185 635v-255h171v-55h-171v-260h245q21 0 39 8t31.5 21.5t21.5 31.5t8 39v370q0 21 -8 39t-21.5 31.5t-31.5 21.5t-39 8
h-245z" />
    <glyph glyph-name="dcroat" unicode="&#x111;" horiz-adv-x="590" 
d="M235 530v60h190v110h70v-110h75v-60h-75v-530h-45l-10 70h-5q-12 -22 -30 -40q-17 -16 -40 -28t-55 -12h-90q-34 0 -61.5 10.5t-47 29.5t-30.5 44.5t-11 55.5v170q0 61 41 100.5t109 39.5h205v90h-190zM220 50h90q28 0 49.5 14t36.5 31q17 20 29 45v240h-205
q-34 0 -57 -23t-23 -57v-170q0 -34 23 -57t57 -23z" />
    <glyph glyph-name="Emacron" unicode="&#x112;" 
d="M100 0v700h455v-45l-20 -20h-360v-245h285v-65h-285v-260h380v-65h-455zM465 875v-65h-275v65h275z" />
    <glyph glyph-name="emacron" unicode="&#x113;" horiz-adv-x="550" 
d="M460 0h-240q-72 0 -111 40t-39 100v240q0 30 11 55.5t30.5 44.5t47 29.5t61.5 10.5h110q34 0 61.5 -10.5t47 -29.5t30.5 -44.5t11 -55.5v-155h-340v-85q0 -34 23 -57t57 -23h240v-60zM140 380v-95h270v95q0 34 -23 57t-57 23h-110q-34 0 -57 -23t-23 -57zM420 695v-65
h-275v65h275z" />
    <glyph glyph-name="Edotaccent" unicode="&#x116;" 
d="M100 0v700h455v-45l-20 -20h-360v-245h285v-65h-285v-260h380v-65h-455zM370 895v-110h-70v110h70z" />
    <glyph glyph-name="edotaccent" unicode="&#x117;" horiz-adv-x="550" 
d="M460 0h-240q-72 0 -111 40t-39 100v240q0 30 11 55.5t30.5 44.5t47 29.5t61.5 10.5h110q34 0 61.5 -10.5t47 -29.5t30.5 -44.5t11 -55.5v-155h-340v-85q0 -34 23 -57t57 -23h240v-60zM140 380v-95h270v95q0 34 -23 57t-57 23h-110q-34 0 -57 -23t-23 -57zM315 715v-110
h-70v110h70z" />
    <glyph glyph-name="Eogonek" unicode="&#x118;" 
d="M100 0v700h455v-45l-20 -20h-360v-245h285v-65h-285v-260h380v-65h-170v-5q-27 -16 -47 -36q-20 -17 -34 -38t-14 -46q0 -19 13 -32t32 -13h60v-50h-60q-49 0 -77 26.5t-28 68.5q0 28 15.5 51t34.5 40q22 19 50 34h-230z" />
    <glyph glyph-name="eogonek" unicode="&#x119;" horiz-adv-x="550" 
d="M285 0h-65q-72 0 -111 40t-39 100v240q0 30 11 55.5t30.5 44.5t47 29.5t61.5 10.5h110q34 0 61.5 -10.5t47 -29.5t30.5 -44.5t11 -55.5v-155h-340v-85q0 -34 23 -57t57 -23h240v-60h-120v-5q-27 -16 -47 -36q-20 -17 -34 -38t-14 -46q0 -19 13 -32t32 -13h60v-50h-60
q-49 0 -77 26.5t-28 68.5q0 28 15.5 51t34.5 40q22 19 50 34zM140 380v-95h270v95q0 34 -23 57t-57 23h-110q-34 0 -57 -23t-23 -57z" />
    <glyph glyph-name="Ecaron" unicode="&#x11a;" 
d="M100 0v700h455v-45l-20 -20h-360v-245h285v-65h-285v-260h380v-65h-455zM420 930h70l-125 -165h-60l-125 165h70l85 -110z" />
    <glyph glyph-name="ecaron" unicode="&#x11b;" horiz-adv-x="550" 
d="M460 0h-240q-72 0 -111 40t-39 100v240q0 30 11 55.5t30.5 44.5t47 29.5t61.5 10.5h110q34 0 61.5 -10.5t47 -29.5t30.5 -44.5t11 -55.5v-155h-340v-85q0 -34 23 -57t57 -23h240v-60zM140 380v-95h270v95q0 34 -23 57t-57 23h-110q-34 0 -57 -23t-23 -57zM360 755h70
l-125 -165h-60l-125 165h70l85 -110z" />
    <glyph glyph-name="Gbreve" unicode="&#x11e;" horiz-adv-x="645" 
d="M565 0h-310q-39 0 -71.5 12.5t-55.5 34.5t-35.5 52t-12.5 66v370q0 36 12.5 66t35.5 52t55.5 34.5t71.5 12.5h290v-45l-20 -20h-270q-21 0 -39 -8t-31.5 -21.5t-21.5 -31.5t-8 -39v-370q0 -21 8 -39t21.5 -31.5t31.5 -21.5t39 -8h235v315h75v-380zM370 790h-55
q-53 0 -81.5 28t-28.5 77v30h60v-30q0 -26 13.5 -40.5t36.5 -14.5h55q23 0 36.5 14.5t13.5 40.5v30h60v-30q0 -49 -28.5 -77t-81.5 -28z" />
    <glyph glyph-name="gbreve" unicode="&#x11f;" horiz-adv-x="575" 
d="M220 520h90q32 0 55.5 -12.5t38.5 -27.5q19 -18 31 -40h5l10 70h45v-550q0 -30 -11 -55.5t-30.5 -44.5t-47 -29.5t-61.5 -10.5h-245v60h245q34 0 57 23t23 57v60h-205q-34 0 -61.5 10.5t-47 29.5t-30.5 44.5t-11 55.5v220q0 30 11 55.5t30.5 44.5t47 29.5t61.5 10.5z
M310 460h-90q-34 0 -57 -23t-23 -57v-220q0 -34 23 -57t57 -23h205v290q-12 25 -29 45q-16 18 -37 31.5t-49 13.5zM320 605h-55q-53 0 -81.5 28t-28.5 77v30h60v-30q0 -26 13.5 -40.5t36.5 -14.5h55q23 0 36.5 14.5t13.5 40.5v30h60v-30q0 -49 -28.5 -77t-81.5 -28z" />
    <glyph glyph-name="Gcommaaccent" unicode="&#x122;" horiz-adv-x="645" 
d="M565 0h-310q-39 0 -71.5 12.5t-55.5 34.5t-35.5 52t-12.5 66v370q0 36 12.5 66t35.5 52t55.5 34.5t71.5 12.5h290v-45l-20 -20h-270q-21 0 -39 -8t-31.5 -21.5t-21.5 -31.5t-8 -39v-370q0 -21 8 -39t21.5 -31.5t31.5 -21.5t39 -8h235v315h75v-380zM315 -60h75v-55
l-40 -125h-35v180z" />
    <glyph glyph-name="gcommaaccent" unicode="&#x123;" horiz-adv-x="575" 
d="M220 520h90q32 0 55.5 -12.5t38.5 -27.5q19 -18 31 -40h5l10 70h45v-550q0 -30 -11 -55.5t-30.5 -44.5t-47 -29.5t-61.5 -10.5h-245v60h245q34 0 57 23t23 57v60h-205q-34 0 -61.5 10.5t-47 29.5t-30.5 44.5t-11 55.5v220q0 30 11 55.5t30.5 44.5t47 29.5t61.5 10.5z
M310 460h-90q-34 0 -57 -23t-23 -57v-220q0 -34 23 -57t57 -23h205v290q-12 25 -29 45q-16 18 -37 31.5t-49 13.5zM325 600h-75v55l40 125h35v-180z" />
    <glyph glyph-name="Imacron" unicode="&#x12a;" horiz-adv-x="245" 
d="M160 0h-75v700h75v-700zM260 865v-65h-275v65h275z" />
    <glyph glyph-name="imacron" unicode="&#x12b;" horiz-adv-x="245" 
d="M260 700v-65h-275v65h275zM165 510v-510h-75v510h75z" />
    <glyph glyph-name="Iogonek" unicode="&#x12e;" horiz-adv-x="255" 
d="M110 0h-20v700h75v-705q-27 -16 -47 -36q-20 -17 -34 -38t-14 -46q0 -19 13 -32t32 -13h60v-50h-60q-49 0 -77 26.5t-28 68.5q0 28 15.5 51t34.5 40q22 19 50 34z" />
    <glyph glyph-name="iogonek" unicode="&#x12f;" horiz-adv-x="230" 
d="M95 0h-15v510h70v-515q-27 -16 -47 -36q-20 -17 -34 -38t-14 -46q0 -19 13 -32t32 -13h60v-50h-60q-49 0 -77 26.5t-28 68.5q0 28 15.5 51t34.5 40q22 19 50 34zM150 700v-120h-70v120h70z" />
    <glyph glyph-name="Idotaccent" unicode="&#x130;" horiz-adv-x="255" 
d="M165 0h-75v700h75v-700zM165 880v-110h-70v110h70z" />
    <glyph glyph-name="dotlessi" unicode="&#x131;" horiz-adv-x="235" 
d="M155 510v-510h-75v510h75z" />
    <glyph glyph-name="Kcommaaccent" unicode="&#x136;" horiz-adv-x="625" 
d="M175 700v-310h165l170 310h75v-30l-185 -310l195 -330v-30h-75l-180 325h-165v-325h-75v700h75zM295 -60h75v-55l-40 -125h-35v180z" />
    <glyph glyph-name="kcommaaccent" unicode="&#x137;" horiz-adv-x="515" 
d="M285 295l120 215h70v-30l-130 -215l140 -235v-30h-70l-130 235h-135v-235h-70v700h70v-405h135zM230 -60h75v-55l-40 -125h-35v180z" />
    <glyph glyph-name="Lacute" unicode="&#x139;" horiz-adv-x="560" 
d="M100 700h75v-635h375v-65h-450v700zM194 925h80l-100 -155h-55z" />
    <glyph glyph-name="lacute" unicode="&#x13a;" horiz-adv-x="265" 
d="M80 140v560h70v-560q0 -34 23 -57t57 -23h15v-60h-15q-34 0 -61.5 10.5t-47 29.5t-30.5 44.5t-11 55.5zM165 925h80l-100 -155h-55z" />
    <glyph glyph-name="Lcommaaccent" unicode="&#x13b;" horiz-adv-x="560" 
d="M100 700h75v-635h375v-65h-450v700zM289 -70h75v-55l-40 -125h-35v180z" />
    <glyph glyph-name="lcommaaccent" unicode="&#x13c;" horiz-adv-x="265" 
d="M80 140v560h70v-560q0 -34 23 -57t57 -23h15v-60h-15q-34 0 -61.5 10.5t-47 29.5t-30.5 44.5t-11 55.5zM130 -60h75v-55l-40 -125h-35v180z" />
    <glyph glyph-name="Lcaron" unicode="&#x13d;" horiz-adv-x="560" 
d="M100 700h75v-635h375v-65h-450v700zM279 700h75v-55l-40 -125h-35v180z" />
    <glyph glyph-name="lcaron" unicode="&#x13e;" horiz-adv-x="315" 
d="M80 140v560h70v-560q0 -34 23 -57t57 -23h15v-60h-15q-34 0 -61.5 10.5t-47 29.5t-30.5 44.5t-11 55.5zM240 700h75v-55l-40 -125h-35v180z" />
    <glyph glyph-name="Lslash" unicode="&#x141;" horiz-adv-x="565" 
d="M105 700h75v-300l160 75v-65l-160 -75v-270h375v-65h-450v300l-85 -40v65l85 40v335z" />
    <glyph glyph-name="lslash" unicode="&#x142;" horiz-adv-x="300" 
d="M85 140v180l-65 -30v65l65 30v315h75v-280l120 55v-65l-120 -55v-215q0 -34 23 -57t57 -23h29v-60h-29q-36 0 -64.5 10.5t-48.5 29.5t-31 44.5t-11 55.5z" />
    <glyph glyph-name="Nacute" unicode="&#x143;" horiz-adv-x="690" 
d="M510 0l-340 575h-5l10 -130v-445h-75v700h80l340 -575h5l-10 130v445h75v-700h-80zM395 925h80l-100 -155h-55z" />
    <glyph glyph-name="nacute" unicode="&#x144;" 
d="M505 0h-70v380q0 34 -23 57t-57 23h-90q-28 0 -49.5 -14t-36.5 -31q-17 -20 -29 -45v-370h-70v510h45l10 -70h5q12 22 31 40q16 16 39 28t55 12h90q34 0 61.5 -10.5t47 -29.5t30.5 -44.5t11 -55.5v-380zM345 745h80l-100 -155h-55z" />
    <glyph glyph-name="Ncommaaccent" unicode="&#x145;" horiz-adv-x="690" 
d="M510 0l-340 575h-5l10 -130v-445h-75v700h80l340 -575h5l-10 130v445h75v-700h-80zM310 -60h75v-55l-40 -125h-35v180z" />
    <glyph glyph-name="ncommaaccent" unicode="&#x146;" 
d="M505 0h-70v380q0 34 -23 57t-57 23h-90q-28 0 -49.5 -14t-36.5 -31q-17 -20 -29 -45v-370h-70v510h45l10 -70h5q12 22 31 40q16 16 39 28t55 12h90q34 0 61.5 -10.5t47 -29.5t30.5 -44.5t11 -55.5v-380zM260 -60h75v-55l-40 -125h-35v180z" />
    <glyph glyph-name="Ncaron" unicode="&#x147;" horiz-adv-x="690" 
d="M510 0l-340 575h-5l10 -130v-445h-75v700h80l340 -575h5l-10 130v445h75v-700h-80zM430 935h70l-125 -165h-60l-125 165h70l85 -110z" />
    <glyph glyph-name="ncaron" unicode="&#x148;" 
d="M505 0h-70v380q0 34 -23 57t-57 23h-90q-28 0 -49.5 -14t-36.5 -31q-17 -20 -29 -45v-370h-70v510h45l10 -70h5q12 22 31 40q16 16 39 28t55 12h90q34 0 61.5 -10.5t47 -29.5t30.5 -44.5t11 -55.5v-380zM390 755h70l-125 -165h-60l-125 165h70l85 -110z" />
    <glyph glyph-name="Omacron" unicode="&#x14c;" horiz-adv-x="685" 
d="M80 545q0 36 12.5 66t35.5 52t55.5 34.5t71.5 12.5h175q39 0 71.5 -12.5t55.5 -34.5t35.5 -52t12.5 -66v-390q0 -36 -12.5 -66t-35.5 -52t-55.5 -34.5t-71.5 -12.5h-175q-39 0 -71.5 12.5t-55.5 34.5t-35.5 52t-12.5 66v390zM530 155v390q0 21 -8 39t-21.5 31.5
t-31.5 21.5t-39 8h-175q-21 0 -39 -8t-31.5 -21.5t-21.5 -31.5t-8 -39v-390q0 -21 8 -39t21.5 -31.5t31.5 -21.5t39 -8h175q21 0 39 8t31.5 21.5t21.5 31.5t8 39zM475 875v-65h-275v65h275z" />
    <glyph glyph-name="omacron" unicode="&#x14d;" horiz-adv-x="565" 
d="M140 380v-250q0 -34 23 -57t57 -23h125q34 0 57 23t23 57v250q0 34 -23 57t-57 23h-125q-34 0 -57 -23t-23 -57zM70 130v250q0 30 11 55.5t30.5 44.5t47 29.5t61.5 10.5h125q34 0 61.5 -10.5t47 -29.5t30.5 -44.5t11 -55.5v-250q0 -30 -11 -55.5t-30.5 -44.5t-47 -29.5
t-61.5 -10.5h-125q-72 0 -111 40t-39 100zM430 700v-65h-275v65h275z" />
    <glyph glyph-name="Ohungarumlaut" unicode="&#x150;" horiz-adv-x="685" 
d="M80 545q0 36 12.5 66t35.5 52t55.5 34.5t71.5 12.5h175q39 0 71.5 -12.5t55.5 -34.5t35.5 -52t12.5 -66v-390q0 -36 -12.5 -66t-35.5 -52t-55.5 -34.5t-71.5 -12.5h-175q-39 0 -71.5 12.5t-55.5 34.5t-35.5 52t-12.5 66v390zM530 155v390q0 21 -8 39t-21.5 31.5
t-31.5 21.5t-39 8h-175q-21 0 -39 -8t-31.5 -21.5t-21.5 -31.5t-8 -39v-390q0 -21 8 -39t21.5 -31.5t31.5 -21.5t39 -8h175q21 0 39 8t31.5 21.5t21.5 31.5t8 39zM300 930h80l-100 -155h-55zM465 930h80l-100 -155h-55z" />
    <glyph glyph-name="ohungarumlaut" unicode="&#x151;" horiz-adv-x="565" 
d="M140 380v-250q0 -34 23 -57t57 -23h125q34 0 57 23t23 57v250q0 34 -23 57t-57 23h-125q-34 0 -57 -23t-23 -57zM70 130v250q0 30 11 55.5t30.5 44.5t47 29.5t61.5 10.5h125q34 0 61.5 -10.5t47 -29.5t30.5 -44.5t11 -55.5v-250q0 -30 -11 -55.5t-30.5 -44.5t-47 -29.5
t-61.5 -10.5h-125q-72 0 -111 40t-39 100zM250 745h80l-100 -155h-55zM415 745h80l-100 -155h-55z" />
    <glyph glyph-name="OE" unicode="&#x152;" horiz-adv-x="950" 
d="M255 0q-39 0 -71.5 12.5t-55.5 34.5t-35.5 52t-12.5 66v370q0 36 12.5 66t35.5 52t55.5 34.5t71.5 12.5h665v-45l-20 -20h-350v-245h275v-65h-275v-260h370v-65h-665zM155 165q0 -21 8 -39t21.5 -31.5t31.5 -21.5t39 -8h220v570h-220q-21 0 -39 -8t-31.5 -21.5
t-21.5 -31.5t-8 -39v-370z" />
    <glyph glyph-name="oe" unicode="&#x153;" horiz-adv-x="905" 
d="M495 380v-85h270v85q0 34 -23 57t-57 23h-110q-34 0 -57 -23t-23 -57zM140 380v-250q0 -34 23 -57t57 -23h125q34 0 57 23t23 57v250q0 34 -23 57t-57 23h-125q-34 0 -57 -23t-23 -57zM815 0h-240q-36 0 -58 9.5t-35 20.5q-15 13 -22 30h-5q-10 -20 -25 -35
q-14 -14 -34.5 -24.5t-50.5 -10.5h-125q-72 0 -111 40t-39 100v250q0 30 11 55.5t30.5 44.5t47 29.5t61.5 10.5h125q30 0 51 -11t34 -24q15 -15 25 -35h5q7 20 22 35q13 14 35 24.5t58 10.5h110q34 0 61.5 -10.5t47 -29.5t30.5 -44.5t11 -55.5v-145h-340v-95q0 -34 23 -57
t57 -23h240v-60z" />
    <glyph glyph-name="Racute" unicode="&#x154;" horiz-adv-x="655" 
d="M175 0h-75v700h310q39 0 71.5 -12.5t55.5 -34.5t35.5 -52t12.5 -66v-95q0 -53 -21 -84.5t-46 -47.5q-30 -20 -68 -28l155 -250v-30h-75l-155 275h-200v-275zM410 635h-235v-295h235q21 0 39 8t31.5 21.5t21.5 31.5t8 39v95q0 21 -8 39t-21.5 31.5t-31.5 21.5t-39 8z
M375 925h80l-100 -155h-55z" />
    <glyph glyph-name="racute" unicode="&#x155;" horiz-adv-x="370" 
d="M360 520v-65h-95q-28 0 -49.5 -13t-36.5 -29q-17 -19 -29 -43v-370h-70v510h45l10 -70h5q12 22 31 40q16 16 39 28t55 12h95zM275 745h80l-100 -155h-55z" />
    <glyph glyph-name="Rcommaaccent" unicode="&#x156;" horiz-adv-x="655" 
d="M175 0h-75v700h310q39 0 71.5 -12.5t55.5 -34.5t35.5 -52t12.5 -66v-95q0 -53 -21 -84.5t-46 -47.5q-30 -20 -68 -28l155 -250v-30h-75l-155 275h-200v-275zM410 635h-235v-295h235q21 0 39 8t31.5 21.5t21.5 31.5t8 39v95q0 21 -8 39t-21.5 31.5t-31.5 21.5t-39 8z
M305 -55h75v-55l-40 -125h-35v180z" />
    <glyph glyph-name="rcommaaccent" unicode="&#x157;" horiz-adv-x="375" 
d="M365 520v-65h-95q-28 0 -49.5 -13t-36.5 -29q-17 -19 -29 -43v-370h-70v510h45l10 -70h5q12 22 31 40q16 16 39 28t55 12h95zM80 -60h75v-55l-40 -125h-35v180z" />
    <glyph glyph-name="Rcaron" unicode="&#x158;" horiz-adv-x="655" 
d="M175 0h-75v700h310q39 0 71.5 -12.5t55.5 -34.5t35.5 -52t12.5 -66v-95q0 -53 -21 -84.5t-46 -47.5q-30 -20 -68 -28l155 -250v-30h-75l-155 275h-200v-275zM410 635h-235v-295h235q21 0 39 8t31.5 21.5t21.5 31.5t8 39v95q0 21 -8 39t-21.5 31.5t-31.5 21.5t-39 8z
M420 925h70l-125 -165h-60l-125 165h70l85 -110z" />
    <glyph glyph-name="rcaron" unicode="&#x159;" horiz-adv-x="380" 
d="M360 520v-65h-95q-28 0 -49.5 -13t-36.5 -29q-17 -19 -29 -43v-370h-70v510h45l10 -70h5q12 22 31 40q16 16 39 28t55 12h95zM310 755h70l-125 -165h-60l-125 165h70l85 -110z" />
    <glyph glyph-name="Sacute" unicode="&#x15a;" horiz-adv-x="565" 
d="M55 505v30q0 36 12.5 66t35.5 52t55.5 34.5t71.5 12.5h275v-45l-20 -20h-255q-21 0 -39 -8t-31.5 -21.5t-21.5 -31.5t-8 -39v-30q0 -42 21 -64.5t59 -30.5l185 -40q53 -11 89 -51.5t36 -108.5v-45q0 -36 -12.5 -66t-35.5 -52t-55.5 -34.5t-71.5 -12.5h-300v65h300
q21 0 39 8t31.5 21.5t21.5 31.5t8 39v45q0 42 -21 64.5t-59 30.5l-185 40q-53 11 -89 51.5t-36 108.5zM345 925h80l-100 -155h-55z" />
    <glyph glyph-name="sacute" unicode="&#x15b;" horiz-adv-x="465" 
d="M110 370q0 -30 15.5 -46.5t49.5 -23.5l145 -30q53 -11 81.5 -42t28.5 -88q0 -30 -11 -55.5t-30.5 -44.5t-47 -29.5t-61.5 -10.5h-245v60h245q34 0 57 23t23 57q0 30 -15.5 46.5t-49.5 23.5l-145 30q-53 11 -81.5 42t-28.5 88q0 61 41 100.5t109 39.5h225v-40l-20 -20
h-205q-34 0 -57 -23t-23 -57zM295 745h80l-100 -155h-55z" />
    <glyph glyph-name="Scedilla" unicode="&#x15e;" horiz-adv-x="565" 
d="M230 -100v100h-185v65h300q21 0 39 8t31.5 21.5t21.5 31.5t8 39v45q0 42 -21 64.5t-59 30.5l-185 40q-53 11 -89 51.5t-36 108.5v30q0 36 12.5 66t35.5 52t55.5 34.5t71.5 12.5h275v-45l-20 -20h-255q-21 0 -39 -8t-31.5 -21.5t-21.5 -31.5t-8 -39v-30q0 -42 21 -64.5
t59 -30.5l185 -40q53 -11 89 -51.5t36 -108.5v-45q0 -36 -12.5 -66t-35.5 -52t-55.5 -34.5t-71.5 -12.5h-65v-50h20q42 0 66 -23.5t24 -61.5v-15q0 -38 -24 -61.5t-66 -23.5h-100v50h100q15 0 25 10t10 25v15q0 15 -10 25t-25 10h-70z" />
    <glyph glyph-name="scedilla" unicode="&#x15f;" horiz-adv-x="465" 
d="M177 -100v100h-142v60h245q34 0 57 23t23 57q0 30 -15.5 46.5t-49.5 23.5l-145 30q-53 11 -81.5 42t-28.5 88q0 61 41 100.5t109 39.5h225v-40l-20 -20h-205q-34 0 -57 -23t-23 -57q0 -30 15.5 -46.5t49.5 -23.5l145 -30q53 -11 81.5 -42t28.5 -88q0 -30 -11 -55.5
t-30.5 -44.5t-47 -29.5t-61.5 -10.5h-53v-50h20q42 0 66 -23.5t24 -61.5v-15q0 -38 -24 -61.5t-66 -23.5h-100v50h100q15 0 25 10t10 25v15q0 15 -10 25t-25 10h-70z" />
    <glyph glyph-name="Scaron" unicode="&#x160;" horiz-adv-x="565" 
d="M55 505v30q0 36 12.5 66t35.5 52t55.5 34.5t71.5 12.5h275v-45l-20 -20h-255q-21 0 -39 -8t-31.5 -21.5t-21.5 -31.5t-8 -39v-30q0 -42 21 -64.5t59 -30.5l185 -40q53 -11 89 -51.5t36 -108.5v-45q0 -36 -12.5 -66t-35.5 -52t-55.5 -34.5t-71.5 -12.5h-300v65h300
q21 0 39 8t31.5 21.5t21.5 31.5t8 39v45q0 42 -21 64.5t-59 30.5l-185 40q-53 11 -89 51.5t-36 108.5zM385 925h70l-125 -165h-60l-125 165h70l85 -110z" />
    <glyph glyph-name="scaron" unicode="&#x161;" horiz-adv-x="465" 
d="M110 370q0 -30 15.5 -46.5t49.5 -23.5l145 -30q53 -11 81.5 -42t28.5 -88q0 -30 -11 -55.5t-30.5 -44.5t-47 -29.5t-61.5 -10.5h-245v60h245q34 0 57 23t23 57q0 30 -15.5 46.5t-49.5 23.5l-145 30q-53 11 -81.5 42t-28.5 88q0 61 41 100.5t109 39.5h225v-40l-20 -20
h-205q-34 0 -57 -23t-23 -57zM335 755h70l-125 -165h-60l-125 165h70l85 -110z" />
    <glyph glyph-name="Tcommaaccent" unicode="&#x162;" horiz-adv-x="535" 
d="M305 635v-635h-75v635h-220v65h515v-45l-20 -20h-200zM235 -60h75v-55l-40 -125h-35v180z" />
    <glyph glyph-name="tcommaaccent" unicode="&#x163;" horiz-adv-x="375" 
d="M20 450v60h80l30 150h40v-150h145v-60h-145v-310q0 -34 23 -57t57 -23h95v-60h-95q-34 0 -61.5 10.5t-47 29.5t-30.5 44.5t-11 55.5v310h-80zM180 -60h75v-55l-40 -125h-35v180z" />
    <glyph glyph-name="Tcaron" unicode="&#x164;" horiz-adv-x="535" 
d="M305 635v-635h-75v635h-220v65h515v-45l-20 -20h-200zM355 925h70l-125 -165h-60l-125 165h70l85 -110z" />
    <glyph glyph-name="tcaron" unicode="&#x165;" horiz-adv-x="435" 
d="M20 450v60h80l30 150h40v-150h145v-60h-145v-310q0 -34 23 -57t57 -23h95v-60h-95q-34 0 -61.5 10.5t-47 29.5t-30.5 44.5t-11 55.5v310h-80zM360 700h75v-55l-40 -125h-35v180z" />
    <glyph glyph-name="Umacron" unicode="&#x16a;" horiz-adv-x="700" 
d="M425 -10h-150q-39 0 -71.5 12.5t-55.5 34.5t-35.5 52t-12.5 66v545h75v-545q0 -21 8 -39t21.5 -31.5t31.5 -21.5t39 -8h150q21 0 39 8t31.5 21.5t21.5 31.5t8 39v545h75v-545q0 -36 -12.5 -66t-35.5 -52t-55.5 -34.5t-71.5 -12.5zM490 865v-65h-275v65h275z" />
    <glyph glyph-name="umacron" unicode="&#x16b;" 
d="M80 510h70v-380q0 -34 23 -57t57 -23h90q28 0 49.5 14t36.5 31q17 20 29 45v370h70v-510h-45l-10 70h-5q-12 -22 -31 -40q-16 -16 -39 -28t-55 -12h-90q-34 0 -61.5 10.5t-47 29.5t-30.5 44.5t-11 55.5v380zM435 700v-65h-275v65h275z" />
    <glyph glyph-name="Uring" unicode="&#x16e;" horiz-adv-x="700" 
d="M425 -10h-150q-39 0 -71.5 12.5t-55.5 34.5t-35.5 52t-12.5 66v545h75v-545q0 -21 8 -39t21.5 -31.5t31.5 -21.5t39 -8h150q21 0 39 8t31.5 21.5t21.5 31.5t8 39v545h75v-545q0 -36 -12.5 -66t-35.5 -52t-55.5 -34.5t-71.5 -12.5zM465 870v-40q0 -38 -26.5 -64t-68.5 -26
h-30q-42 0 -68.5 26t-26.5 64v40q0 38 26.5 64t68.5 26h30q42 0 68.5 -26t26.5 -64zM340 785h30q19 0 32 13t13 32v40q0 19 -13 32t-32 13h-30q-19 0 -32 -13t-13 -32v-40q0 -19 13 -32t32 -13z" />
    <glyph glyph-name="uring" unicode="&#x16f;" 
d="M80 510h70v-380q0 -34 23 -57t57 -23h90q28 0 49.5 14t36.5 31q17 20 29 45v370h70v-510h-45l-10 70h-5q-12 -22 -31 -40q-16 -16 -39 -28t-55 -12h-90q-34 0 -61.5 10.5t-47 29.5t-30.5 44.5t-11 55.5v380zM410 690v-40q0 -38 -26.5 -64t-68.5 -26h-30q-42 0 -68.5 26
t-26.5 64v40q0 38 26.5 64t68.5 26h30q42 0 68.5 -26t26.5 -64zM285 605h30q19 0 32 13t13 32v40q0 19 -13 32t-32 13h-30q-19 0 -32 -13t-13 -32v-40q0 -19 13 -32t32 -13z" />
    <glyph glyph-name="Uhungarumlaut" unicode="&#x170;" horiz-adv-x="700" 
d="M425 -10h-150q-39 0 -71.5 12.5t-55.5 34.5t-35.5 52t-12.5 66v545h75v-545q0 -21 8 -39t21.5 -31.5t31.5 -21.5t39 -8h150q21 0 39 8t31.5 21.5t21.5 31.5t8 39v545h75v-545q0 -36 -12.5 -66t-35.5 -52t-55.5 -34.5t-71.5 -12.5zM295 925h80l-100 -155h-55zM460 925h80
l-100 -155h-55z" />
    <glyph glyph-name="uhungarumlaut" unicode="&#x171;" 
d="M80 510h70v-380q0 -34 23 -57t57 -23h90q28 0 49.5 14t36.5 31q17 20 29 45v370h70v-510h-45l-10 70h-5q-12 -22 -31 -40q-16 -16 -39 -28t-55 -12h-90q-34 0 -61.5 10.5t-47 29.5t-30.5 44.5t-11 55.5v380zM260 745h80l-100 -155h-55zM425 745h80l-100 -155h-55z" />
    <glyph glyph-name="Uogonek" unicode="&#x172;" horiz-adv-x="700" 
d="M425 -10h-24q-8 -5 -22.5 -16t-28.5 -26t-24.5 -33.5t-10.5 -39.5q0 -19 13 -32t32 -13h60v-50h-60q-49 0 -77 26.5t-28 68.5q0 21 9 39t21.5 32.5t27 25.5t25.5 18h-63q-39 0 -71.5 12.5t-55.5 34.5t-35.5 52t-12.5 66v545h75v-545q0 -21 8 -39t21.5 -31.5t31.5 -21.5
t39 -8h150q21 0 39 8t31.5 21.5t21.5 31.5t8 39v545h75v-545q0 -36 -12.5 -66t-35.5 -52t-55.5 -34.5t-71.5 -12.5z" />
    <glyph glyph-name="uogonek" unicode="&#x173;" horiz-adv-x="595" 
d="M450 0h10l-10 70h-5q-12 -22 -31 -40q-16 -16 -39 -28t-55 -12h-90q-34 0 -61.5 10.5t-47 29.5t-30.5 44.5t-11 55.5v380h70v-380q0 -34 23 -57t57 -23h90q28 0 49.5 14t36.5 31q17 20 29 45v370h70v-515q-27 -16 -47 -36q-20 -17 -34 -38t-14 -46q0 -19 13 -32t32 -13
h60v-50h-60q-49 0 -77 26.5t-28 68.5q0 28 15.5 51t34.5 40q22 19 50 34z" />
    <glyph glyph-name="Ydieresis" unicode="&#x178;" horiz-adv-x="565" 
d="M320 215v-215h-75v215l-235 455v30h75l195 -405h5l195 405h75v-30zM155 885h70v-100h-70v100zM340 885h70v-100h-70v100z" />
    <glyph glyph-name="Zacute" unicode="&#x179;" horiz-adv-x="540" 
d="M520 65v-65h-500v65l405 565v5h-375l-20 20v45h490v-65l-405 -565v-5h405zM320 925h80l-100 -155h-55z" />
    <glyph glyph-name="zacute" unicode="&#x17a;" horiz-adv-x="440" 
d="M420 60v-60h-400v60l310 385v5h-280l-20 20v40h390v-60l-310 -385v-5h310zM280 745h80l-100 -155h-55z" />
    <glyph glyph-name="Zdotaccent" unicode="&#x17b;" horiz-adv-x="540" 
d="M520 65v-65h-500v65l405 565v5h-375l-20 20v45h490v-65l-405 -565v-5h405zM310 895v-110h-70v110h70z" />
    <glyph glyph-name="zdotaccent" unicode="&#x17c;" horiz-adv-x="440" 
d="M420 60v-60h-400v60l310 385v5h-280l-20 20v40h390v-60l-310 -385v-5h310zM270 705v-110h-70v110h70z" />
    <glyph glyph-name="Zcaron" unicode="&#x17d;" horiz-adv-x="540" 
d="M520 65v-65h-500v65l405 565v5h-375l-20 20v45h490v-65l-405 -565v-5h405zM365 935h70l-125 -165h-60l-125 165h70l85 -110z" />
    <glyph glyph-name="zcaron" unicode="&#x17e;" horiz-adv-x="440" 
d="M420 60v-60h-400v60l310 385v5h-280l-20 20v40h390v-60l-310 -385v-5h310zM315 755h70l-125 -165h-60l-125 165h70l85 -110z" />
    <glyph glyph-name="florin" unicode="&#x192;" horiz-adv-x="355" 
d="M150 570v-120h165v-60h-165v-420q0 -30 -11 -55.5t-30.5 -44.5t-47 -29.5t-61.5 -10.5h-40v60h40q34 0 57 23t23 57v600q0 30 11 55.5t30.5 44.5t47 29.5t61.5 10.5h145v-40l-20 -20h-125q-34 0 -57 -23t-23 -57z" />
    <glyph glyph-name="Scommaaccent" unicode="&#x218;" horiz-adv-x="565" 
d="M55 505v30q0 36 12.5 66t35.5 52t55.5 34.5t71.5 12.5h275v-45l-20 -20h-255q-21 0 -39 -8t-31.5 -21.5t-21.5 -31.5t-8 -39v-30q0 -42 21 -64.5t59 -30.5l185 -40q53 -11 89 -51.5t36 -108.5v-45q0 -36 -12.5 -66t-35.5 -52t-55.5 -34.5t-71.5 -12.5h-300v65h300
q21 0 39 8t31.5 21.5t21.5 31.5t8 39v45q0 42 -21 64.5t-59 30.5l-185 40q-53 11 -89 51.5t-36 108.5zM245 -60h75v-55l-40 -125h-35v180z" />
    <glyph glyph-name="scommaaccent" unicode="&#x219;" horiz-adv-x="465" 
d="M110 370q0 -30 15.5 -46.5t49.5 -23.5l145 -30q53 -11 81.5 -42t28.5 -88q0 -30 -11 -55.5t-30.5 -44.5t-47 -29.5t-61.5 -10.5h-245v60h245q34 0 57 23t23 57q0 30 -15.5 46.5t-49.5 23.5l-145 30q-53 11 -81.5 42t-28.5 88q0 61 41 100.5t109 39.5h225v-40l-20 -20
h-205q-34 0 -57 -23t-23 -57zM185 -60h75v-55l-40 -125h-35v180z" />
    <glyph glyph-name="afii57929" unicode="&#x2bc;" horiz-adv-x="155" 
d="M40 700h75v-55l-40 -125h-35v180z" />
    <glyph glyph-name="circumflex" unicode="&#x2c6;" horiz-adv-x="390" 
d="M350 545h-70l-85 110l-85 -110h-70l125 165h60z" />
    <glyph glyph-name="caron" unicode="&#x2c7;" horiz-adv-x="390" 
d="M280 710h70l-125 -165h-60l-125 165h70l85 -110z" />
    <glyph glyph-name="breve" unicode="&#x2d8;" horiz-adv-x="355" 
d="M205 575h-55q-53 0 -81.5 28t-28.5 77v30h60v-30q0 -26 13.5 -40.5t36.5 -14.5h55q23 0 36.5 14.5t13.5 40.5v30h60v-30q0 -49 -28.5 -77t-81.5 -28z" />
    <glyph glyph-name="dotaccent" unicode="&#x2d9;" horiz-adv-x="150" 
d="M110 700v-110h-70v110h70z" />
    <glyph glyph-name="ring" unicode="&#x2da;" horiz-adv-x="300" 
d="M260 650v-40q0 -38 -26.5 -64t-68.5 -26h-30q-42 0 -68.5 26t-26.5 64v40q0 38 26.5 64t68.5 26h30q42 0 68.5 -26t26.5 -64zM135 565h30q19 0 32 13t13 32v40q0 19 -13 32t-32 13h-30q-19 0 -32 -13t-13 -32v-40q0 -19 13 -32t32 -13z" />
    <glyph glyph-name="ogonek" unicode="&#x2db;" horiz-adv-x="245" 
d="M140 0h55v-5q-27 -16 -47 -36q-20 -17 -34 -38t-14 -46q0 -19 13 -32t32 -13h60v-50h-60q-49 0 -77 26.5t-28 68.5q0 28 15.5 51t34.5 40q22 19 50 34z" />
    <glyph glyph-name="tilde" unicode="&#x2dc;" horiz-adv-x="345" 
d="M40 560v60q0 38 19.5 59t45.5 21q13 0 25 -5.5t21 -11.5q10 -8 19 -18l30 -30q4 -6 9 -10t10 -7t11 -3q8 0 14 6t6 14v60h55v-60q0 -38 -19.5 -59t-45.5 -21q-13 0 -25 5.5t-21 12.5q-10 7 -19 17l-30 30q-4 6 -9 10t-10 7t-11 3q-8 0 -14 -6t-6 -14v-60h-55z" />
    <glyph glyph-name="hungarumlaut" unicode="&#x2dd;" horiz-adv-x="400" 
d="M115 710h80l-100 -155h-55zM280 710h80l-100 -155h-55z" />
    <glyph glyph-name="afii10023" unicode="&#x401;" 
d="M100 0v700h455v-45l-20 -20h-360v-245h285v-65h-285v-260h380v-65h-455zM200 895h70v-100h-70v100zM385 895h70v-100h-70v100z" />
    <glyph glyph-name="afii10051" unicode="&#x402;" horiz-adv-x="675" 
d="M405 45h45q21 0 39 8t31.5 21.5t21.5 31.5t8 39v120q0 21 -8 39t-21.5 31.5t-31.5 21.5t-39 8h-210v-365h-75v635h-165v65h435v-45l-20 -20h-175v-205h210q39 0 71.5 -12.5t55.5 -34.5t35.5 -52t12.5 -66v-120q0 -36 -12.5 -66t-35.5 -52t-55.5 -34.5t-71.5 -12.5h-45v65
z" />
    <glyph glyph-name="afii10052" unicode="&#x403;" horiz-adv-x="520" 
d="M360 925h80l-100 -155h-55zM175 0h-75v700h420v-45l-20 -20h-325v-635z" />
    <glyph glyph-name="afii10053" unicode="&#x404;" horiz-adv-x="580" 
d="M545 65v-65h-290q-39 0 -71.5 12.5t-55.5 34.5t-35.5 52t-12.5 66v370q0 36 12.5 66t35.5 52t55.5 34.5t71.5 12.5h290v-45l-20 -20h-270q-21 0 -39 -8t-31.5 -21.5t-21.5 -31.5t-8 -39v-145h255v-65h-255v-160q0 -21 8 -39t21.5 -31.5t31.5 -21.5t39 -8h290z" />
    <glyph glyph-name="afii10054" unicode="&#x405;" horiz-adv-x="565" 
d="M55 505v30q0 36 12.5 66t35.5 52t55.5 34.5t71.5 12.5h275v-45l-20 -20h-255q-21 0 -39 -8t-31.5 -21.5t-21.5 -31.5t-8 -39v-30q0 -42 21 -64.5t59 -30.5l185 -40q53 -11 89 -51.5t36 -108.5v-45q0 -36 -12.5 -66t-35.5 -52t-55.5 -34.5t-71.5 -12.5h-300v65h300
q21 0 39 8t31.5 21.5t21.5 31.5t8 39v45q0 42 -21 64.5t-59 30.5l-185 40q-53 11 -89 51.5t-36 108.5z" />
    <glyph glyph-name="afii10055" unicode="&#x406;" horiz-adv-x="275" 
d="M175 0h-75v700h75v-700z" />
    <glyph glyph-name="afii10056" unicode="&#x407;" horiz-adv-x="255" 
d="M165 0h-75v700h75v-700zM0 895h70v-100h-70v100zM185 895h70v-100h-70v100z" />
    <glyph glyph-name="afii10057" unicode="&#x408;" horiz-adv-x="485" 
d="M385 700v-545q0 -36 -12.5 -66t-35.5 -52t-55.5 -34.5t-71.5 -12.5h-200v65h200q21 0 39 8t31.5 21.5t21.5 31.5t8 39v545h75z" />
    <glyph glyph-name="afii10058" unicode="&#x409;" horiz-adv-x="1020" 
d="M190 700h380v-255h215q39 0 71.5 -12.5t55.5 -34.5t35.5 -52t12.5 -66v-115q0 -36 -12.5 -66t-35.5 -52t-55.5 -34.5t-71.5 -12.5h-290v635h-235l-60 -475q-10 -79 -53 -124.5t-122 -45.5h-25v65h25q38 0 66 28t34 77zM570 65h215q21 0 39 8t31.5 21.5t21.5 31.5t8 39
v115q0 21 -8 39t-21.5 31.5t-31.5 21.5t-39 8h-215v-315z" />
    <glyph glyph-name="afii10059" unicode="&#x40a;" horiz-adv-x="1025" 
d="M495 700h75v-275h220q39 0 71.5 -12.5t55.5 -34.5t35.5 -52t12.5 -66v-95q0 -36 -12.5 -66t-35.5 -52t-55.5 -34.5t-71.5 -12.5h-295v360h-320v-360h-75v700h75v-275h320v275zM570 65h220q21 0 39 8t31.5 21.5t21.5 31.5t8 39v95q0 21 -8 39t-21.5 31.5t-31.5 21.5t-39 8
h-220v-295z" />
    <glyph glyph-name="afii10060" unicode="&#x40b;" horiz-adv-x="695" 
d="M625 0h-75v265q0 21 -8 39t-21.5 31.5t-31.5 21.5t-39 8h-210v-365h-75v635h-165v65h435v-45l-20 -20h-175v-205h210q39 0 71.5 -12.5t55.5 -34.5t35.5 -52t12.5 -66v-265z" />
    <glyph glyph-name="afii10061" unicode="&#x40c;" horiz-adv-x="625" 
d="M365 925h80l-100 -155h-55zM175 700v-310h165l170 310h75v-30l-185 -310l195 -330v-30h-75l-180 325h-165v-325h-75v700h75z" />
    <glyph glyph-name="afii10062" unicode="&#x40e;" horiz-adv-x="565" 
d="M20 700h75l190 -465h5l180 465h75v-30l-215 -515q-19 -45 -37.5 -76.5t-40.5 -51t-49 -28.5t-63 -9h-40v65h40q67 0 105 100l-225 515v30zM325 780h-75q-57 0 -86 28.5t-29 81.5v35h65v-35q0 -26 13.5 -40.5t36.5 -14.5h75q23 0 36.5 14.5t13.5 40.5v35h65v-35
q0 -53 -29 -81.5t-86 -28.5z" />
    <glyph glyph-name="afii10145" unicode="&#x40f;" horiz-adv-x="695" 
d="M100 0v700h75v-635h345v635h75v-700h-205l-10 -140h-65l-10 140h-205z" />
    <glyph glyph-name="afii10017" unicode="&#x410;" horiz-adv-x="605" 
d="M150 180l-60 -180h-75v30l245 670h85l245 -670v-30h-75l-60 180h-305zM430 245l-125 365h-5l-125 -365h255z" />
    <glyph glyph-name="afii10018" unicode="&#x411;" horiz-adv-x="635" 
d="M100 0v700h445v-45l-20 -20h-350v-215h235q39 0 71.5 -12.5t55.5 -34.5t35.5 -52t12.5 -66v-90q0 -36 -12.5 -66t-35.5 -52t-55.5 -34.5t-71.5 -12.5h-310zM410 355h-235v-290h235q21 0 39 8t31.5 21.5t21.5 31.5t8 39v90q0 21 -8 39t-21.5 31.5t-31.5 21.5t-39 8z" />
    <glyph glyph-name="afii10019" unicode="&#x412;" horiz-adv-x="650" 
d="M425 330h-250v-265h250q21 0 39 8t31.5 21.5t21.5 31.5t8 39v65q0 21 -8 39t-21.5 31.5t-31.5 21.5t-39 8zM480 375v-5q34 -7 60 -25q24 -16 42 -43t18 -72v-65q0 -36 -12.5 -66t-35.5 -52t-55.5 -34.5t-71.5 -12.5h-325v700h290q39 0 71.5 -12.5t55.5 -34.5t35.5 -52
t12.5 -66v-40q0 -38 -13 -61t-29 -36q-19 -16 -43 -23zM390 635h-215v-240h215q21 0 39 8t31.5 21.5t21.5 31.5t8 39v40q0 21 -8 39t-21.5 31.5t-31.5 21.5t-39 8z" />
    <glyph glyph-name="afii10020" unicode="&#x413;" horiz-adv-x="520" 
d="M175 0h-75v700h420v-45l-20 -20h-325v-635z" />
    <glyph glyph-name="afii10021" unicode="&#x414;" horiz-adv-x="670" 
d="M165 700h400v-635h75v-205h-65l-10 140h-490l-10 -140h-65v205h20q21 14 39 33q17 17 30 39.5t16 52.5zM235 635l-55 -445q-4 -30 -16 -52.5t-25 -37.5q-16 -18 -34 -30v-5h385v570h-255z" />
    <glyph glyph-name="afii10022" unicode="&#x415;" 
d="M100 0v700h455v-45l-20 -20h-360v-245h285v-65h-285v-260h380v-65h-455z" />
    <glyph glyph-name="afii10024" unicode="&#x416;" horiz-adv-x="955" 
d="M515 390h155l170 310h75v-30l-185 -310l195 -330v-30h-75l-180 325h-155v-325h-75v325h-155l-180 -325h-75v30l195 330l-185 310v30h75l170 -310h155v310h75v-310z" />
    <glyph glyph-name="afii10025" unicode="&#x417;" horiz-adv-x="540" 
d="M315 0h-285v65h285q21 0 39 8t31.5 21.5t21.5 31.5t8 39v65q0 21 -8 39t-21.5 31.5t-31.5 21.5t-39 8h-160v65h150q21 0 39 8t31.5 21.5t21.5 31.5t8 39v40q0 21 -8 39t-21.5 31.5t-31.5 21.5t-39 8h-250l-20 20v45h270q39 0 71.5 -12.5t55.5 -34.5t35.5 -52t12.5 -66
v-40q0 -40 -15 -64t-33 -38q-21 -16 -48 -23v-7q30 -8 53 -25q22 -16 37.5 -41t15.5 -67v-65q0 -36 -12.5 -66t-35.5 -52t-55.5 -34.5t-71.5 -12.5z" />
    <glyph glyph-name="afii10026" unicode="&#x418;" horiz-adv-x="690" 
d="M170 115l340 585h80v-700h-75v445l10 140h-5l-340 -585h-80v700h75v-445l-10 -140h5z" />
    <glyph glyph-name="afii10027" unicode="&#x419;" horiz-adv-x="690" 
d="M170 115l340 585h80v-700h-75v445l10 140h-5l-340 -585h-80v700h75v-445l-10 -140h5zM385 785h-75q-57 0 -86 28.5t-29 81.5v35h65v-35q0 -26 13.5 -40.5t36.5 -14.5h75q23 0 36.5 14.5t13.5 40.5v35h65v-35q0 -53 -29 -81.5t-86 -28.5z" />
    <glyph glyph-name="afii10028" unicode="&#x41a;" horiz-adv-x="625" 
d="M175 700v-310h165l170 310h75v-30l-185 -310l195 -330v-30h-75l-180 325h-165v-325h-75v700h75z" />
    <glyph glyph-name="afii10029" unicode="&#x41b;" horiz-adv-x="690" 
d="M190 700h400v-700h-75v635h-255l-60 -475q-10 -79 -53 -124.5t-122 -45.5h-25v65h25q38 0 66 28t34 77z" />
    <glyph glyph-name="afii10030" unicode="&#x41c;" horiz-adv-x="905" 
d="M415 95l-205 490h-5l-70 -585h-75v30l90 670h90l210 -505h5l210 505h90l90 -670v-30h-75l-70 585h-5l-205 -490h-75z" />
    <glyph glyph-name="afii10031" unicode="&#x41d;" horiz-adv-x="695" 
d="M595 700v-700h-75v325h-345v-325h-75v700h75v-310h345v310h75z" />
    <glyph glyph-name="afii10032" unicode="&#x41e;" horiz-adv-x="685" 
d="M80 545q0 36 12.5 66t35.5 52t55.5 34.5t71.5 12.5h175q39 0 71.5 -12.5t55.5 -34.5t35.5 -52t12.5 -66v-390q0 -36 -12.5 -66t-35.5 -52t-55.5 -34.5t-71.5 -12.5h-175q-39 0 -71.5 12.5t-55.5 34.5t-35.5 52t-12.5 66v390zM530 155v390q0 21 -8 39t-21.5 31.5
t-31.5 21.5t-39 8h-175q-21 0 -39 -8t-31.5 -21.5t-21.5 -31.5t-8 -39v-390q0 -21 8 -39t21.5 -31.5t31.5 -21.5t39 -8h175q21 0 39 8t31.5 21.5t21.5 31.5t8 39z" />
    <glyph glyph-name="afii10033" unicode="&#x41f;" horiz-adv-x="695" 
d="M100 700h495v-700h-75v635h-345v-635h-75v700z" />
    <glyph glyph-name="afii10034" unicode="&#x420;" horiz-adv-x="635" 
d="M175 0h-75v700h310q39 0 71.5 -12.5t55.5 -34.5t35.5 -52t12.5 -66v-135q0 -36 -12.5 -66t-35.5 -52t-55.5 -34.5t-71.5 -12.5h-235v-235zM410 635h-235v-335h235q21 0 39 8t31.5 21.5t21.5 31.5t8 39v135q0 21 -8 39t-21.5 31.5t-31.5 21.5t-39 8z" />
    <glyph glyph-name="afii10035" unicode="&#x421;" horiz-adv-x="580" 
d="M545 65v-65h-290q-39 0 -71.5 12.5t-55.5 34.5t-35.5 52t-12.5 66v370q0 36 12.5 66t35.5 52t55.5 34.5t71.5 12.5h290v-45l-20 -20h-270q-21 0 -39 -8t-31.5 -21.5t-21.5 -31.5t-8 -39v-370q0 -21 8 -39t21.5 -31.5t31.5 -21.5t39 -8h290z" />
    <glyph glyph-name="afii10036" unicode="&#x422;" horiz-adv-x="535" 
d="M305 635v-635h-75v635h-220v65h515v-45l-20 -20h-200z" />
    <glyph glyph-name="afii10037" unicode="&#x423;" horiz-adv-x="565" 
d="M20 700h75l190 -465h5l180 465h75v-30l-215 -515q-19 -45 -37.5 -76.5t-40.5 -51t-49 -28.5t-63 -9h-40v65h40q67 0 105 100l-225 515v30z" />
    <glyph glyph-name="afii10038" unicode="&#x424;" horiz-adv-x="925" 
d="M850 475v-250q0 -36 -12.5 -66t-36.5 -52t-58.5 -34.5t-77.5 -12.5h-165v-85h-75v85h-175q-39 0 -71.5 12.5t-55.5 34.5t-35.5 52t-12.5 66v250q0 36 12.5 66t35.5 52t55.5 34.5t71.5 12.5h175v95h75v-95h175q39 0 71.5 -12.5t55.5 -34.5t35.5 -52t12.5 -66zM150 225
q0 -21 8 -39t21.5 -31.5t31.5 -21.5t39 -8h175v450h-175q-21 0 -39 -8t-31.5 -21.5t-21.5 -31.5t-8 -39v-250zM675 575h-175v-450h165q49 0 79.5 29t30.5 71v250q0 21 -8 39t-21.5 31.5t-31.5 21.5t-39 8z" />
    <glyph glyph-name="afii10039" unicode="&#x425;" 
d="M295 410l180 290h75v-30l-200 -310l220 -330v-30h-75l-200 305h-5l-200 -305h-75v30l220 330l-200 310v30h75l180 -290h5z" />
    <glyph glyph-name="afii10040" unicode="&#x426;" horiz-adv-x="690" 
d="M585 0h-485v700h75v-635h335v635h75v-635h75v-205h-65z" />
    <glyph glyph-name="afii10041" unicode="&#x427;" horiz-adv-x="655" 
d="M255 325h225v375h75v-700h-75v260h-225q-39 0 -71.5 12.5t-55.5 34.5t-35.5 52t-12.5 66v275h75v-275q0 -21 8 -39t21.5 -31.5t31.5 -21.5t39 -8z" />
    <glyph glyph-name="afii10042" unicode="&#x428;" horiz-adv-x="1005" 
d="M905 0h-805v700h75v-635h290v635h75v-635h290v635h75v-700z" />
    <glyph glyph-name="afii10043" unicode="&#x429;" horiz-adv-x="1010" 
d="M905 0h-805v700h75v-635h290v635h75v-635h290v635h75v-635h75v-205h-65z" />
    <glyph glyph-name="afii10044" unicode="&#x42a;" horiz-adv-x="695" 
d="M0 700h235v-255h225q39 0 71.5 -12.5t55.5 -34.5t35.5 -52t12.5 -66v-115q0 -36 -12.5 -66t-35.5 -52t-55.5 -34.5t-71.5 -12.5h-300v635h-160v65zM235 65h225q21 0 39 8t31.5 21.5t21.5 31.5t8 39v115q0 21 -8 39t-21.5 31.5t-31.5 21.5t-39 8h-225v-315z" />
    <glyph glyph-name="afii10045" unicode="&#x42b;" horiz-adv-x="895" 
d="M720 700h75v-700h-75v700zM100 700h75v-255h225q39 0 71.5 -12.5t55.5 -34.5t35.5 -52t12.5 -66v-115q0 -36 -12.5 -66t-35.5 -52t-55.5 -34.5t-71.5 -12.5h-300v700zM175 65h225q21 0 39 8t31.5 21.5t21.5 31.5t8 39v115q0 21 -8 39t-21.5 31.5t-31.5 21.5t-39 8h-225
v-315z" />
    <glyph glyph-name="afii10046" unicode="&#x42c;" horiz-adv-x="645" 
d="M100 700h75v-255h235q39 0 71.5 -12.5t55.5 -34.5t35.5 -52t12.5 -66v-115q0 -36 -12.5 -66t-35.5 -52t-55.5 -34.5t-71.5 -12.5h-310v700zM175 65h235q21 0 39 8t31.5 21.5t21.5 31.5t8 39v115q0 21 -8 39t-21.5 31.5t-31.5 21.5t-39 8h-235v-315z" />
    <glyph glyph-name="afii10047" unicode="&#x42d;" horiz-adv-x="580" 
d="M35 0v65h290q21 0 39 8t31.5 21.5t21.5 31.5t8 39v160h-255v65h255v145q0 21 -8 39t-21.5 31.5t-31.5 21.5t-39 8h-270l-20 20v45h290q39 0 71.5 -12.5t55.5 -34.5t35.5 -52t12.5 -66v-370q0 -36 -12.5 -66t-35.5 -52t-55.5 -34.5t-71.5 -12.5h-290z" />
    <glyph glyph-name="afii10048" unicode="&#x42e;" horiz-adv-x="925" 
d="M845 545v-390q0 -36 -12.5 -66t-35.5 -52t-55.5 -34.5t-71.5 -12.5h-145q-39 0 -71.5 12.5t-55.5 34.5t-35.5 52t-12.5 66v170h-175v-325h-75v700h75v-310h175v155q0 36 12.5 66t35.5 52t55.5 34.5t71.5 12.5h145q39 0 71.5 -12.5t55.5 -34.5t35.5 -52t12.5 -66zM425 155
q0 -21 8 -39t21.5 -31.5t31.5 -21.5t39 -8h145q21 0 39 8t31.5 21.5t21.5 31.5t8 39v390q0 21 -8 39t-21.5 31.5t-31.5 21.5t-39 8h-145q-21 0 -39 -8t-31.5 -21.5t-21.5 -31.5t-8 -39v-390z" />
    <glyph glyph-name="afii10049" unicode="&#x42f;" horiz-adv-x="655" 
d="M555 0h-75v275h-200l-155 -275h-75v30l155 250q-38 8 -67 28q-28 17 -48 48.5t-20 83.5v95q0 36 12.5 66t35.5 52t55.5 34.5t71.5 12.5h310v-700zM480 635h-235q-21 0 -39 -8t-31.5 -21.5t-21.5 -31.5t-8 -39v-95q0 -21 8 -39t21.5 -31.5t31.5 -21.5t39 -8h235v295z" />
    <glyph glyph-name="afii10065" unicode="&#x430;" horiz-adv-x="530" 
d="M450 0h-45l-10 70h-5q-12 -22 -31 -40q-16 -16 -39 -28t-55 -12h-80q-72 0 -111 40t-39 100v30q0 30 11 55.5t30.5 44.5t47 29.5t61.5 10.5h195v70q0 34 -23 57t-57 23h-220v60h220q34 0 61.5 -10.5t47 -29.5t30.5 -44.5t11 -55.5v-370zM185 50h80q28 0 49.5 14t36.5 31
q17 20 29 45v100h-195q-34 0 -57 -23t-23 -57v-30q0 -34 23 -57t57 -23z" />
    <glyph glyph-name="afii10066" unicode="&#x431;" horiz-adv-x="560" 
d="M75 130v360q0 38 11.5 68.5t31 53.5t46 38t56.5 20l255 45l10 -65l-255 -45q-38 -7 -61.5 -34.5t-23.5 -80.5v-50h195q68 0 109 -39.5t41 -100.5v-170q0 -30 -11 -55.5t-30.5 -44.5t-47 -29.5t-61.5 -10.5h-115q-72 0 -111 40t-39 100zM145 380v-250q0 -34 23 -57t57 -23
h115q34 0 57 23t23 57v170q0 34 -23 57t-57 23h-195z" />
    <glyph glyph-name="afii10067" unicode="&#x432;" horiz-adv-x="530" 
d="M390 265v-5q27 -7 48 -21q19 -13 33 -34t14 -55v-10q0 -30 -11 -55.5t-30.5 -44.5t-47 -29.5t-61.5 -10.5h-255v510h235q34 0 61.5 -10.5t47 -29.5t30.5 -44.5t11 -55.5q0 -32 -11.5 -52.5t-25.5 -31.5q-17 -14 -38 -21zM415 140v10q0 34 -23 57t-57 23h-185v-170h185
q34 0 57 23t23 57zM395 370q0 34 -23 57t-57 23h-165v-160h165q34 0 57 23t23 57z" />
    <glyph glyph-name="afii10068" unicode="&#x433;" horiz-adv-x="430" 
d="M80 510h350v-40l-20 -20h-260v-450h-70v510z" />
    <glyph glyph-name="afii10069" unicode="&#x434;" horiz-adv-x="560" 
d="M0 60h15q20 10 37 25q15 14 27.5 34.5t15.5 50.5l40 340h325v-450h70v-180h-60l-10 120h-390l-10 -120h-60v180zM390 60v390h-190l-35 -280q-4 -30 -14.5 -50t-21.5 -32q-13 -15 -29 -23v-5h290z" />
    <glyph glyph-name="afii10070" unicode="&#x435;" horiz-adv-x="550" 
d="M460 0h-240q-72 0 -111 40t-39 100v240q0 30 11 55.5t30.5 44.5t47 29.5t61.5 10.5h110q34 0 61.5 -10.5t47 -29.5t30.5 -44.5t11 -55.5v-155h-340v-85q0 -34 23 -57t57 -23h240v-60zM140 380v-95h270v95q0 34 -23 57t-57 23h-110q-34 0 -57 -23t-23 -57z" />
    <glyph glyph-name="afii10072" unicode="&#x436;" horiz-adv-x="780" 
d="M110 510l120 -215h125v215h70v-215h125l120 215h70v-30l-130 -215l140 -235v-30h-70l-130 235h-125v-235h-70v235h-125l-130 -235h-70v30l140 235l-130 215v30h70z" />
    <glyph glyph-name="afii10073" unicode="&#x437;" horiz-adv-x="460" 
d="M415 150v-10q0 -30 -11 -55.5t-30.5 -44.5t-47 -29.5t-61.5 -10.5h-235v60h235q34 0 57 23t23 57v10q0 34 -23 57t-57 23h-125v60h115q34 0 57 23t23 57t-23 57t-57 23h-195l-20 20v40h215q34 0 61.5 -10.5t47 -29.5t30.5 -44.5t11 -55.5q0 -32 -12.5 -52.5t-27.5 -31.5
q-18 -14 -40 -21v-5q25 -7 45 -21q18 -13 31.5 -34t13.5 -55z" />
    <glyph glyph-name="afii10074" unicode="&#x438;" horiz-adv-x="570" 
d="M425 410l-275 -410h-70v510h70v-290l-10 -120h5l275 410h70v-510h-70v290l10 120h-5z" />
    <glyph glyph-name="afii10075" unicode="&#x439;" horiz-adv-x="570" 
d="M425 410l-275 -410h-70v510h70v-290l-10 -120h5l275 410h70v-510h-70v290l10 120h-5zM320 595h-55q-53 0 -81.5 28t-28.5 77v30h60v-30q0 -26 13.5 -40.5t36.5 -14.5h55q23 0 36.5 14.5t13.5 40.5v30h60v-30q0 -49 -28.5 -77t-81.5 -28z" />
    <glyph glyph-name="afii10076" unicode="&#x43a;" horiz-adv-x="515" 
d="M285 295l120 215h70v-30l-130 -215l140 -235v-30h-70l-130 235h-135v-235h-70v510h70v-215h135z" />
    <glyph glyph-name="afii10077" unicode="&#x43b;" horiz-adv-x="565" 
d="M0 -10v60h25q34 0 59.5 25t30.5 70l45 365h325v-510h-70v450h-190l-40 -305q-9 -72 -50.5 -113.5t-109.5 -41.5h-25z" />
    <glyph glyph-name="afii10078" unicode="&#x43c;" horiz-adv-x="725" 
d="M325 65l-145 340h-5l-50 -405h-70v30l65 480h85l155 -360h5l155 360h85l65 -480v-30h-70l-50 405h-5l-145 -340h-75z" />
    <glyph glyph-name="afii10079" unicode="&#x43d;" horiz-adv-x="575" 
d="M150 0h-70v510h70v-225h275v225h70v-510h-70v225h-275v-225z" />
    <glyph glyph-name="afii10080" unicode="&#x43e;" horiz-adv-x="565" 
d="M140 380v-250q0 -34 23 -57t57 -23h125q34 0 57 23t23 57v250q0 34 -23 57t-57 23h-125q-34 0 -57 -23t-23 -57zM70 130v250q0 30 11 55.5t30.5 44.5t47 29.5t61.5 10.5h125q34 0 61.5 -10.5t47 -29.5t30.5 -44.5t11 -55.5v-250q0 -30 -11 -55.5t-30.5 -44.5t-47 -29.5
t-61.5 -10.5h-125q-72 0 -111 40t-39 100z" />
    <glyph glyph-name="afii10081" unicode="&#x43f;" horiz-adv-x="575" 
d="M150 0h-70v510h415v-510h-70v450h-275v-450z" />
    <glyph glyph-name="afii10082" unicode="&#x440;" horiz-adv-x="575" 
d="M265 520h90q34 0 61.5 -10.5t47 -29.5t30.5 -44.5t11 -55.5v-240q0 -30 -11 -55.5t-30.5 -44.5t-47 -29.5t-61.5 -10.5h-205v-170h-70v680h45l10 -70h5q12 22 31 40q16 16 39 28t55 12zM355 460h-90q-28 0 -49.5 -14t-36.5 -31q-17 -20 -29 -45v-310h205q34 0 57 23
t23 57v240q0 34 -23 57t-57 23z" />
    <glyph glyph-name="afii10083" unicode="&#x441;" horiz-adv-x="480" 
d="M430 450h-210q-34 0 -57 -23t-23 -57v-230q0 -34 23 -57t57 -23h230v-60h-230q-72 0 -111 40t-39 100v230q0 30 11 55.5t30.5 44.5t47 29.5t61.5 10.5h230v-40z" />
    <glyph glyph-name="afii10084" unicode="&#x442;" horiz-adv-x="440" 
d="M10 510h420v-40l-15 -20h-160v-450h-70v450h-175v60z" />
    <glyph glyph-name="afii10085" unicode="&#x443;" horiz-adv-x="485" 
d="M465 480l-180 -480q-34 -90 -75.5 -130t-109.5 -40h-25v60h25q73 0 110 110l-190 480v30h70l155 -430h5l145 430h70v-30z" />
    <glyph glyph-name="afii10086" unicode="&#x444;" horiz-adv-x="755" 
d="M415 700v-190h120q34 0 61.5 -10.5t47 -29.5t30.5 -44.5t11 -55.5v-230q0 -30 -11 -55.5t-30.5 -44.5t-47 -29.5t-61.5 -10.5h-120v-170h-75v170h-120q-34 0 -61.5 10.5t-47 29.5t-30.5 44.5t-11 55.5v230q0 30 11 55.5t30.5 44.5t47 29.5t61.5 10.5h120v190h75zM535 450
h-120v-390h120q34 0 57 23t23 57v230q0 34 -23 57t-57 23zM220 60h120v390h-120q-34 0 -57 -23t-23 -57v-230q0 -34 23 -57t57 -23z" />
    <glyph glyph-name="afii10087" unicode="&#x445;" horiz-adv-x="465" 
d="M235 220h-5l-140 -220h-70v30l160 235l-150 215v30h70l130 -201h5l130 201h70v-30l-150 -215l160 -235v-30h-70z" />
    <glyph glyph-name="afii10088" unicode="&#x446;" 
d="M80 510h70v-450h265v450h70v-450h70v-180h-60l-10 120h-405v510z" />
    <glyph glyph-name="afii10089" unicode="&#x447;" horiz-adv-x="535" 
d="M60 325v185h70v-185q0 -34 23 -57t57 -23h175v265h70v-510h-70v185h-175q-72 0 -111 40t-39 100z" />
    <glyph glyph-name="afii10090" unicode="&#x448;" horiz-adv-x="810" 
d="M370 510h70v-450h220v450h70v-510h-650v510h70v-450h220v450z" />
    <glyph glyph-name="afii10091" unicode="&#x449;" horiz-adv-x="830" 
d="M370 510h70v-450h220v450h70v-450h70v-180h-60l-10 120h-650v510h70v-450h220v450z" />
    <glyph glyph-name="afii10092" unicode="&#x44a;" horiz-adv-x="550" 
d="M200 510v-175h160q34 0 61.5 -10.5t47 -29.5t30.5 -44.5t11 -55.5v-55q0 -30 -11 -55.5t-30.5 -44.5t-47 -29.5t-61.5 -10.5h-230v450h-130v60h200zM360 275h-160v-215h160q34 0 57 23t23 57v55q0 34 -23 57t-57 23z" />
    <glyph glyph-name="afii10093" unicode="&#x44b;" horiz-adv-x="710" 
d="M560 0v510h70v-510h-70zM150 510v-175h160q34 0 61.5 -10.5t47 -29.5t30.5 -44.5t11 -55.5v-55q0 -30 -11 -55.5t-30.5 -44.5t-47 -29.5t-61.5 -10.5h-230v510h70zM310 275h-160v-215h160q34 0 57 23t23 57v55q0 34 -23 57t-57 23z" />
    <glyph glyph-name="afii10094" unicode="&#x44c;" horiz-adv-x="510" 
d="M150 510v-175h170q34 0 61.5 -10.5t47 -29.5t30.5 -44.5t11 -55.5v-55q0 -30 -11 -55.5t-30.5 -44.5t-47 -29.5t-61.5 -10.5h-240v510h70zM320 275h-170v-215h170q34 0 57 23t23 57v55q0 34 -23 57t-57 23z" />
    <glyph glyph-name="afii10095" unicode="&#x44d;" horiz-adv-x="480" 
d="M260 450h-210l-20 20v40h230q34 0 61.5 -10.5t47 -29.5t30.5 -44.5t11 -55.5v-230q0 -60 -39 -100t-111 -40h-230v60h230q34 0 57 23t23 57v90h-200v60h200v80q0 34 -23 57t-57 23z" />
    <glyph glyph-name="afii10096" unicode="&#x44e;" horiz-adv-x="746" 
d="M278 130v95h-130v-225h-70v510h70v-225h130v95q0 30 11 55.5t30.5 44.5t47 29.5t61.5 10.5h100q34 0 61.5 -10.5t47 -29.5t30.5 -44.5t11 -55.5v-250q0 -30 -11 -55.5t-30.5 -44.5t-47 -29.5t-61.5 -10.5h-100q-72 0 -111 40t-39 100zM348 380v-250q0 -34 23 -57t57 -23
h100q34 0 57 23t23 57v250q0 34 -23 57t-57 23h-100q-34 0 -57 -23t-23 -57z" />
    <glyph glyph-name="afii10097" unicode="&#x44f;" horiz-adv-x="525" 
d="M375 0v190h-155l-105 -190h-70v30l110 170q-28 7 -50 24q-20 15 -35 39.5t-15 66.5v40q0 30 11 55.5t30.5 44.5t47 29.5t61.5 10.5h240v-510h-70zM205 250h170v200h-170q-34 0 -57 -23t-23 -57v-40q0 -34 23 -57t57 -23z" />
    <glyph glyph-name="afii10071" unicode="&#x451;" horiz-adv-x="550" 
d="M155 715h70v-100h-70v100zM340 715h70v-100h-70v100zM460 0h-240q-72 0 -111 40t-39 100v240q0 30 11 55.5t30.5 44.5t47 29.5t61.5 10.5h110q34 0 61.5 -10.5t47 -29.5t30.5 -44.5t11 -55.5v-155h-340v-85q0 -34 23 -57t57 -23h240v-60zM140 380v-95h270v95q0 34 -23 57
t-57 23h-110q-34 0 -57 -23t-23 -57z" />
    <glyph glyph-name="afii10099" unicode="&#x452;" 
d="M375 50q34 0 57 23t23 57v150q0 34 -23 57t-57 23h-205v-360h-70v510h-80v60h80l25 140h45v-140h145v-60h-145v-90h205q34 0 61.5 -10.5t47 -29.5t30.5 -44.5t11 -55.5v-150q0 -30 -11 -55.5t-30.5 -44.5t-47 -29.5t-61.5 -10.5h-45v60h45z" />
    <glyph glyph-name="afii10100" unicode="&#x453;" horiz-adv-x="430" 
d="M301 742h80l-100 -155h-55zM80 510h350v-40l-20 -20h-260v-450h-70v510z" />
    <glyph glyph-name="afii10101" unicode="&#x454;" horiz-adv-x="480" 
d="M430 450h-210q-34 0 -57 -23t-23 -57v-80h200v-60h-200v-90q0 -34 23 -57t57 -23h230v-60h-230q-72 0 -111 40t-39 100v230q0 30 11 55.5t30.5 44.5t47 29.5t61.5 10.5h230v-40z" />
    <glyph glyph-name="afii10102" unicode="&#x455;" horiz-adv-x="465" 
d="M110 370q0 -30 15.5 -46.5t49.5 -23.5l145 -30q53 -11 81.5 -42t28.5 -88q0 -30 -11 -55.5t-30.5 -44.5t-47 -29.5t-61.5 -10.5h-245v60h245q34 0 57 23t23 57q0 30 -15.5 46.5t-49.5 23.5l-145 30q-53 11 -81.5 42t-28.5 88q0 61 41 100.5t109 39.5h225v-40l-20 -20
h-205q-34 0 -57 -23t-23 -57z" />
    <glyph glyph-name="afii10103" unicode="&#x456;" horiz-adv-x="230" 
d="M150 510v-510h-70v510h70zM150 700v-120h-70v120h70z" />
    <glyph glyph-name="afii10104" unicode="&#x457;" horiz-adv-x="235" 
d="M155 510v-510h-75v510h75zM-10 710h70v-100h-70v100zM175 710h70v-100h-70v100z" />
    <glyph glyph-name="afii10105" unicode="&#x458;" horiz-adv-x="230" 
d="M150 700v-120h-70v120h70zM150 510v-540q0 -30 -11 -55.5t-30.5 -44.5t-47 -29.5t-61.5 -10.5h-40v60h40q34 0 57 23t23 57v540h70z" />
    <glyph glyph-name="afii10106" unicode="&#x459;" horiz-adv-x="835" 
d="M475 510v-175h170q34 0 61.5 -10.5t47 -29.5t30.5 -44.5t11 -55.5v-55q0 -30 -11 -55.5t-30.5 -44.5t-47 -29.5t-61.5 -10.5h-240v450h-180l-40 -305q-9 -72 -50.5 -113.5t-109.5 -41.5h-25v60h25q34 0 59.5 25t30.5 70l45 365h315zM645 275h-170v-215h170q34 0 57 23
t23 57v55q0 34 -23 57t-57 23z" />
    <glyph glyph-name="afii10107" unicode="&#x45a;" horiz-adv-x="845" 
d="M150 0h-70v510h70v-200h260v200h70v-200h175q34 0 61.5 -10.5t47 -29.5t30.5 -44.5t11 -55.5v-30q0 -30 -11 -55.5t-30.5 -44.5t-47 -29.5t-61.5 -10.5h-245v250h-260v-250zM655 250h-175v-190h175q34 0 57 23t23 57v30q0 34 -23 57t-57 23z" />
    <glyph glyph-name="afii10108" unicode="&#x45b;" horiz-adv-x="595" 
d="M125 710h45v-140h145v-60h-145v-90h205q34 0 61.5 -10.5t47 -29.5t30.5 -44.5t11 -55.5v-280h-70v280q0 34 -23 57t-57 23h-205v-360h-70v510h-80v60h80z" />
    <glyph glyph-name="afii10109" unicode="&#x45c;" horiz-adv-x="515" 
d="M310 745h80l-100 -155h-55zM285 295l120 215h70v-30l-130 -215l140 -235v-30h-70l-130 235h-135v-235h-70v510h70v-215h135z" />
    <glyph glyph-name="afii10110" unicode="&#x45e;" horiz-adv-x="485" 
d="M465 480l-180 -480q-34 -90 -75.5 -130t-109.5 -40h-25v60h25q73 0 110 110l-190 480v30h70l155 -430h5l145 430h70v-30zM275 595h-55q-53 0 -81.5 28t-28.5 77v30h60v-30q0 -26 13.5 -40.5t36.5 -14.5h55q23 0 36.5 14.5t13.5 40.5v30h60v-30q0 -49 -28.5 -77t-81.5 -28
z" />
    <glyph glyph-name="afii10193" unicode="&#x45f;" horiz-adv-x="575" 
d="M325 0l-10 -120h-55l-10 120h-170v510h70v-450h275v450h70v-510h-170z" />
    <glyph glyph-name="afii10050" unicode="&#x490;" horiz-adv-x="520" 
d="M450 700l10 100h60v-165h-345v-635h-75v700h350z" />
    <glyph glyph-name="afii10098" unicode="&#x491;" horiz-adv-x="430" 
d="M80 510h285l10 95h55v-155h-280v-450h-70v510z" />
    <glyph glyph-name="uni1E9E" unicode="&#x1e9e;" horiz-adv-x="650" 
d="M300 335v65l170 230v5h-215q-21 0 -39 -8t-31.5 -21.5t-21.5 -31.5t-8 -39v-535h-75v535q0 36 12.5 66t35.5 52t55.5 34.5t71.5 12.5h300v-65l-170 -230v-5h40q39 0 71.5 -12.5t55.5 -34.5t35.5 -52t12.5 -66v-70q0 -36 -12.5 -66t-35.5 -52t-55.5 -34.5t-71.5 -12.5
h-135v65h135q21 0 39 8t31.5 21.5t21.5 31.5t8 39v70q0 21 -8 39t-21.5 31.5t-31.5 21.5t-39 8h-125z" />
    <glyph glyph-name="endash" unicode="&#x2013;" horiz-adv-x="555" 
d="M515 340v-65h-475v65h475z" />
    <glyph glyph-name="emdash" unicode="&#x2014;" horiz-adv-x="825" 
d="M785 340v-65h-745v65h745z" />
    <glyph glyph-name="quoteleft" unicode="&#x2018;" horiz-adv-x="195" 
d="M135 510h-75v65l40 125h35v-190z" />
    <glyph glyph-name="quoteright" unicode="&#x2019;" horiz-adv-x="195" 
d="M60 700h75v-65l-40 -125h-35v190z" />
    <glyph glyph-name="quotesinglbase" unicode="&#x201a;" horiz-adv-x="195" 
d="M60 95h75v-65l-40 -125h-35v190z" />
    <glyph glyph-name="quotedblleft" unicode="&#x201c;" horiz-adv-x="350" 
d="M290 510h-75v65l40 125h35v-190zM135 510h-75v65l40 125h35v-190z" />
    <glyph glyph-name="quotedblright" unicode="&#x201d;" horiz-adv-x="350" 
d="M60 700h75v-65l-40 -125h-35v190zM215 700h75v-65l-40 -125h-35v190z" />
    <glyph glyph-name="quotedblbase" unicode="&#x201e;" horiz-adv-x="350" 
d="M60 95h75v-65l-40 -125h-35v190zM215 95h75v-65l-40 -125h-35v190z" />
    <glyph glyph-name="dagger" unicode="&#x2020;" horiz-adv-x="545" 
d="M300 720l10 -230h195v-65h-195v-595h-75v595h-195v65h195l10 230h55z" />
    <glyph glyph-name="daggerdbl" unicode="&#x2021;" horiz-adv-x="545" 
d="M245 720h55l10 -225h195v-65h-195v-330h195v-65h-195l-10 -225h-55l-10 225h-195v65h195v330h-195v65h195z" />
    <glyph glyph-name="bullet" unicode="&#x2022;" horiz-adv-x="270" 
d="M80 295v40q0 15 10 25t25 10h40q15 0 25 -10t10 -25v-40q0 -15 -10 -25t-25 -10h-40q-15 0 -25 10t-10 25z" />
    <glyph glyph-name="ellipsis" unicode="&#x2026;" horiz-adv-x="645" 
d="M60 95h75v-95h-75v95zM285 95h75v-95h-75v95zM510 95h75v-95h-75v95z" />
    <glyph glyph-name="perthousand" unicode="&#x2030;" horiz-adv-x="1090" 
d="M335 490q0 -53 -35 -86.5t-95 -33.5h-35q-60 0 -95 33.5t-35 86.5v100q0 53 35 86.5t95 33.5h35q60 0 95 -33.5t35 -86.5v-100zM100 590v-100q0 -30 18 -47.5t52 -17.5h35q34 0 52 17.5t18 47.5v100q0 30 -18 47.5t-52 17.5h-35q-34 0 -52 -17.5t-18 -47.5zM565 700h55
v-30l-415 -670h-55v30zM710 110q0 -53 -35 -86.5t-95 -33.5h-35q-60 0 -95 33.5t-35 86.5v100q0 53 35 86.5t95 33.5h35q60 0 95 -33.5t35 -86.5v-100zM475 210v-100q0 -30 18 -47.5t52 -17.5h35q34 0 52 17.5t18 47.5v100q0 30 -18 47.5t-52 17.5h-35q-34 0 -52 -17.5
t-18 -47.5zM1050 110q0 -53 -35 -86.5t-95 -33.5h-35q-60 0 -95 33.5t-35 86.5v100q0 53 35 86.5t95 33.5h35q60 0 95 -33.5t35 -86.5v-100zM815 210v-100q0 -30 18 -47.5t52 -17.5h35q34 0 52 17.5t18 47.5v100q0 30 -18 47.5t-52 17.5h-35q-34 0 -52 -17.5t-18 -47.5z" />
    <glyph glyph-name="guilsinglleft" unicode="&#x2039;" horiz-adv-x="325" 
d="M50 260l155 215h60v-30l-135 -185l135 -185v-30h-60z" />
    <glyph glyph-name="guilsinglright" unicode="&#x203a;" horiz-adv-x="325" 
d="M120 475l155 -215l-155 -215h-60v30l135 185l-135 185v30h60z" />
    <glyph glyph-name="fraction" unicode="&#x2044;" horiz-adv-x="520" 
d="M445 700h55v-30l-425 -670h-55v30z" />
    <glyph glyph-name="foursuperior" unicode="&#x2074;" horiz-adv-x="329" 
d="M20 475l185 225h59v-225h45v-50h-45v-65h-60v65h-184v50zM199 620l-114 -140v-5h119v145h-5z" />
    <glyph glyph-name="Euro" unicode="&#x20ac;" horiz-adv-x="595" 
d="M560 65v-65h-290q-39 0 -71.5 12.5t-55.5 34.5t-35.5 52t-12.5 66v75h-75v60h75v100h-75v60h75v75q0 36 12.5 66t35.5 52t55.5 34.5t71.5 12.5h290v-45l-20 -20h-270q-21 0 -39 -8t-31.5 -21.5t-21.5 -31.5t-8 -39v-75h270v-60h-270v-100h270v-60h-270v-75q0 -21 8 -39
t21.5 -31.5t31.5 -21.5t39 -8h290z" />
    <glyph glyph-name="uni20B4" unicode="&#x20b4;" horiz-adv-x="600" 
d="M30 390v60h400q4 6 8 14q3 8 5 18t2 23v30q0 21 -8 39t-21.5 31.5t-31.5 21.5t-39 8h-225l-20 20v45h245q39 0 71.5 -12.5t55.5 -34.5t35.5 -52t12.5 -66v-30q0 -13 -1.5 -23.5t-3.5 -17.5q-2 -8 -5 -14h60v-60h-540zM570 310v-60h-405q-4 -6 -7 -14q-4 -8 -6 -18t-2 -23
v-30q0 -21 8 -39t21.5 -31.5t31.5 -21.5t39 -8h275v-65h-275q-39 0 -71.5 12.5t-55.5 34.5t-35.5 52t-12.5 66v30q0 13 1.5 23.5t3.5 17.5q2 8 5 14h-55v60h540z" />
    <glyph glyph-name="uni20BD" unicode="&#x20bd;" horiz-adv-x="645" 
d="M30 290v65h85v345h305q39 0 71.5 -12.5t55.5 -34.5t35.5 -52t12.5 -66v-80q0 -36 -12.5 -66t-35.5 -52t-55.5 -34.5t-71.5 -12.5h-230v-90h300v-65h-300v-135h-75v135h-85v65h85v90h-85zM420 635h-230v-280h230q21 0 39 8t31.5 21.5t21.5 31.5t8 39v80q0 21 -8 39
t-21.5 31.5t-31.5 21.5t-39 8z" />
    <glyph glyph-name="afii61352" unicode="&#x2116;" horiz-adv-x="1045" 
d="M985 280v-60h-275v60h275zM510 0l-340 575h-5l10 -130v-445h-75v700h80l340 -575h5l-10 130v445h75v-700h-80zM995 490q0 -53 -35 -86.5t-95 -33.5h-35q-60 0 -95 33.5t-35 86.5v100q0 53 35 86.5t95 33.5h35q60 0 95 -33.5t35 -86.5v-100zM760 590v-100q0 -30 18 -47.5
t52 -17.5h35q34 0 52 17.5t18 47.5v100q0 30 -18 47.5t-52 17.5h-35q-34 0 -52 -17.5t-18 -47.5z" />
    <glyph glyph-name="trademark" unicode="&#x2122;" horiz-adv-x="760" 
d="M420 700l85 -195h5l85 195h70l45 -290v-20h-60l-30 225h-5l-80 -185h-55l-80 185h-5l-30 -225h-60v20l45 290h70zM10 700h285v-40l-15 -15h-95v-255h-65v255h-110v55z" />
    <glyph glyph-name="minus" unicode="&#x2212;" horiz-adv-x="505" 
d="M465 355v-65h-425v65h425z" />
    <glyph glyph-name="commaaccent" unicode="&#xf6c3;" horiz-adv-x="155" 
d="M40 -50h75v-55l-40 -125h-35v180z" />
    <glyph glyph-name="cyrBreve" unicode="&#xf6d1;" horiz-adv-x="385" 
d="M230 780h-75q-57 0 -86 28.5t-29 81.5v35h65v-35q0 -26 13.5 -40.5t36.5 -14.5h75q23 0 36.5 14.5t13.5 40.5v35h65v-35q0 -53 -29 -81.5t-86 -28.5z" />
    <glyph glyph-name="cyrbreve" unicode="&#xf6d4;" horiz-adv-x="355" 
d="M205 595h-55q-53 0 -81.5 28t-28.5 77v30h60v-30q0 -26 13.5 -40.5t36.5 -14.5h55q23 0 36.5 14.5t13.5 40.5v30h60v-30q0 -49 -28.5 -77t-81.5 -28z" />
    <glyph glyph-name="Germandbls" horiz-adv-x="650" 
d="M300 335v65l170 230v5h-215q-21 0 -39 -8t-31.5 -21.5t-21.5 -31.5t-8 -39v-535h-75v535q0 36 12.5 66t35.5 52t55.5 34.5t71.5 12.5h300v-65l-170 -230v-5h40q39 0 71.5 -12.5t55.5 -34.5t35.5 -52t12.5 -66v-70q0 -36 -12.5 -66t-35.5 -52t-55.5 -34.5t-71.5 -12.5
h-135v65h135q21 0 39 8t31.5 21.5t21.5 31.5t8 39v70q0 21 -8 39t-21.5 31.5t-31.5 21.5t-39 8h-125z" />
    <glyph glyph-name="foundryicon" horiz-adv-x="1230" 
d="M100 -110v920h1030v-920h-1030zM1110 -90v880h-990v-880h990zM635 610h110q38 0 59 -19.5t21 -45.5t-21 -45.5t-59 -19.5h-55v-80h-55v210zM765 545q0 8 -6 14t-14 6h-55v-40h55q8 0 14 6t6 14zM635 300h110q38 0 59 -19.5t21 -45.5t-21 -45.5t-59 -19.5h-55v-80h-55v210
zM765 235q0 8 -6 14t-14 6h-55v-40h55q8 0 14 6t6 14zM495 170l-75 130h60l40 -75h5l40 75h65l-80 -130v-80h-55v80zM495 480l-75 130h60l40 -75h5l40 75h65l-80 -130v-80h-55v80zM300 255h-65v45h165l25 -45h-70v-165h-55v165zM300 565h-65v45h165l25 -45h-70v-165h-55v165
zM790 400v65q19 4 37.5 20.5t22.5 39.5h80v-45h-85v-35h120v-45h-175zM790 90v65q19 4 37.5 20.5t22.5 39.5h80v-45h-85v-35h120v-45h-175zM810 300h155v-45h-115q-4 15 -14.5 28t-25.5 17zM810 610h155v-45h-115q-4 15 -14.5 28t-25.5 17z" />
  </font>
</defs>
</svg>
